<?xml version="1.0" encoding="UTF-8" standalone="no"?>
<!DOCTYPE svg PUBLIC "-//W3C//DTD SVG 1.1//EN" "http://www.w3.org/Graphics/SVG/1.1/DTD/svg11.dtd">
<svg width="100%" height="100%" viewBox="0 0 565 832" version="1.1" xmlns="http://www.w3.org/2000/svg" xmlns:xlink="http://www.w3.org/1999/xlink" xml:space="preserve" style="fill-rule:evenodd;clip-rule:evenodd;stroke-linejoin:round;stroke-miterlimit:1.41421;">
    <g transform="matrix(1,0,0,1,5.2483e-05,-0.00954219)">
        <path d="M472.536,738.99C465.025,731.43 457.413,724.87 455.616,724.41C453.83,723.96 452.343,722.47 452.313,721.11C452.294,719.75 449.567,718.77 446.267,718.94C442.747,719.12 441.374,718.54 442.947,717.56C447.269,714.86 443.823,713.21 436.835,714.62C431.705,715.66 431.153,715.44 434.132,713.53C439.145,710.33 436.7,708.18 428.756,708.8C423.003,709.26 422.586,708.97 425.024,706.19C427.246,703.65 426.864,702.94 422.984,702.43C420.354,702.08 416.572,702.73 414.589,703.88C411.435,705.7 411.283,705.49 413.397,702.13C416.664,696.93 412.773,693.31 407.381,696.54C404.965,697.98 402.374,698.47 401.605,697.64C400.836,696.81 401.271,695.5 402.575,694.72C406.991,692.08 399.799,690.66 393.612,692.95C388.649,694.79 386.852,694.33 384.212,690.56C381.136,686.16 380.618,686.18 375.079,690.84C369.522,695.53 369.103,695.54 366.997,690.98C364.845,686.31 364.587,686.33 357.765,691.97C351.544,697.1 350.412,697.41 347.893,694.68C343.933,690.4 341.901,692.25 340.002,701.87C338.457,709.68 342.823,718.19 348.542,718.51C349.947,718.59 351.447,716.02 351.87,712.81L352.63,706.97L355.08,711.96C357.7,717.28 360.756,716.86 362.719,710.91C363.704,707.91 364.119,707.98 365.051,711.28C368.168,722.39 371.404,724.04 374.038,715.87C374.682,713.88 375.21,715.04 375.229,718.46C375.248,725.64 380.876,726.47 383.651,719.7C385.053,716.29 385.348,716.72 385.282,722.12C385.185,729.71 388.917,730.95 392.655,724.56C394.074,722.14 395.826,720.81 396.562,721.6C397.288,722.39 397.284,724.04 396.556,725.27C394.981,727.93 399.876,733.84 402.397,732.33C403.364,731.76 404.672,729.66 405.306,727.67C406.252,724.68 406.566,724.94 407.085,729.2C407.85,735.47 415.865,737.42 415.829,731.32C415.817,729.4 416.445,728.52 417.214,729.35C417.972,730.18 418.61,732.38 418.619,734.25C418.648,739.03 422.981,739.59 424.807,735.06C426.109,731.84 426.67,732.03 428.685,736.4C430.837,741.08 431.383,741.18 434.951,737.53C438.385,734.01 439.038,734.05 440.431,737.87C441.694,741.36 442.528,741.61 444.675,739.15C446.148,737.48 447.999,736.81 448.799,737.67C449.599,738.54 452.558,739.37 455.377,739.53C458.196,739.69 465.062,742.88 470.64,746.61C486.675,757.34 487.493,754.04 472.536,738.99L472.536,738.99Z" style="fill:rgb(132,189,76);fill-rule:nonzero;"/>
        <path d="M547.835,657.32C547.12,656.55 544.383,656.59 541.761,657.42C539.129,658.24 531.041,658.79 523.761,658.63C516.492,658.47 509.579,658.92 508.4,659.63C507.21,660.33 505.875,659.55 505.419,657.89C504.836,655.79 503.162,655.72 499.935,657.65C495.422,660.35 495.317,660.27 496.452,655.04C497.595,649.77 497.482,649.73 491.152,653.33C487.592,655.36 485.595,655.94 486.718,654.62C490.563,650.07 486.168,649.46 478.914,653.53C474.905,655.77 473.074,656.26 474.828,654.62C480.509,649.32 474.642,646.97 467.047,651.51C460.476,655.44 460.194,655.41 462.317,650.99C464.421,646.6 464.257,646.37 459.796,647.55C457.156,648.25 452.761,650.89 450.007,653.41C445.185,657.83 445.044,657.81 446.116,652.87C447.74,645.39 445.927,644.83 438.834,650.6C433.134,655.24 432.847,655.29 435.84,651.05C440.792,644.05 438.084,643.4 427.097,648.94C418.917,653.07 417.896,653.21 421.087,649.79C427.221,643.17 423.223,642.53 413.101,648.5C404.603,653.51 403.939,653.6 405.848,649.48C408.848,642.97 402.973,642.35 395.685,648.4C390.801,652.45 390.064,652.66 391.929,649.49C396.121,642.32 391.796,642.06 382.927,648.95L374.518,655.48L377.078,649.47C380.313,641.84 375.089,642.12 365.096,650.12C358.722,655.21 358.122,655.37 359.796,651.5C360.846,649.09 360.986,646.35 360.111,645.4C357.784,642.88 350.408,647.93 349.657,652.55C348.781,657.94 345.979,657.39 345.398,651.71C345.038,648.11 344.292,647.49 342.012,648.85C340.408,649.81 338.607,652.2 338.022,654.16C337.169,657.04 336.582,657.09 335.037,654.43C331.88,649 326.684,652.5 327.522,659.49C327.96,663.06 327.406,666.94 326.313,668.09C324.89,669.58 327.192,672.53 334.159,678.15L344.012,686.09L344.714,679.94L345.414,673.78L349.999,678.66C355.169,684.16 357.172,683.86 357.85,677.48C358.271,673.55 358.784,673.6 362.919,677.97C368.226,683.58 372.589,682.26 370.889,675.56C369.604,670.5 371.458,671.26 376.697,677.94C380.662,683 383.005,682.37 383.913,675.98C384.479,671.96 384.876,672.09 387.715,677.22C391.17,683.47 395.527,682.92 395.18,676.28C395.005,673.09 396.098,673.49 400.667,678.28L406.365,684.25L407.224,677.88L408.082,671.5L412.624,678.75C417.344,686.29 423.091,686.76 420.401,679.38C418.305,673.62 422.508,672.47 427.183,677.53C431.826,682.55 438.089,682.77 438.066,677.92C438.056,675.51 438.836,675.53 441.15,677.98C444.966,682.04 451.029,681.57 451.015,677.22C451.005,674.81 451.785,674.83 454.089,677.28C457.905,681.34 463.978,680.87 463.954,676.51C463.95,674.22 465.066,674.49 467.817,677.42C472.211,682.12 475.956,681 475.642,675.1C475.454,671.7 475.995,671.72 479.329,675.23C483.539,679.67 486.183,679.24 487.69,673.87C488.437,671.24 489.326,671.23 491.716,673.81C494.876,677.24 500.477,676.05 497.496,672.59C496.583,671.52 498.301,671.31 501.318,672.12C504.915,673.09 508.956,672.25 513.028,669.71C516.442,667.56 525.572,664.46 533.315,662.8C549.285,659.37 549.618,659.25 547.835,657.32L547.835,657.32Z" style="fill:rgb(132,189,76);fill-rule:nonzero;"/>
        <path d="M349.534,742.23C336.937,728.38 329.825,709.82 317.214,657.81C312.027,636.41 298.858,589.94 287.955,554.55C277.052,519.16 266.113,477.65 263.658,462.3C255.824,413.51 255.129,326.44 262.167,274.41C273.346,191.7 290.534,107.08 297.63,99.82C299.338,98.07 309.307,93.76 319.801,90.23C330.286,86.7 342.638,82.11 347.257,80.03C355.422,76.35 355.129,76.29 336.782,77.88C326.394,78.78 316.235,80.52 314.196,81.73C312.157,82.94 309.226,83.61 307.673,83.22C305.825,82.75 307.692,81.32 313.023,79.11C317.515,77.25 323.381,74.78 326.043,73.63C328.716,72.47 335.281,69.64 340.628,67.35L350.364,63.17L343.19,62.41C339.246,62 334.15,62.77 331.87,64.13C327.493,66.75 311.08,70.29 309.788,68.9C309.372,68.45 317.344,63.85 327.512,58.67C337.68,53.5 345.619,48.85 345.15,48.34C343.912,47 321.914,51.33 317.952,53.69C316.096,54.8 313.982,55.06 313.255,54.27C312.028,52.95 319.313,48.91 332.532,43.57C335.375,42.42 338.519,40.09 339.53,38.39C340.912,36.03 339.577,35.77 333.965,37.28C324.041,39.96 324.021,39.09 333.914,34.34C342.97,29.98 343.104,28 334.304,28.33C329.154,28.51 329.318,28.24 335.852,25.73C341.975,23.38 342.562,22.65 339.482,21.26C336.76,20.03 337.022,18.86 340.462,16.8C343.032,15.27 344.196,13.96 343.042,13.89C341.898,13.83 341.633,11.34 342.47,8.37C343.307,5.4 343.045,1.94 341.872,0.68C339.47,-1.92 332.718,3.19 325.016,13.44C321.564,18.04 319.791,19.19 317.223,18.54C314.979,17.96 314.255,19.61 314.996,23.57C315.978,28.76 315.626,29.23 311.971,27.6C308.439,26.03 308.071,26.74 309.518,32.36C311.72,40.97 309.02,42.34 302.904,35.72C300.215,32.82 297.194,30.93 296.18,31.53C293.455,33.16 295.824,42.76 300.118,47.46C302.17,49.72 303.868,53.1 303.867,54.98C303.88,57.43 301.421,56.43 295.131,51.45C286.785,44.83 275.159,41.64 278.729,46.95C282.343,52.34 285.473,56.29 292.826,64.74C300.949,74.07 299.346,77.1 289.755,70.56C280.591,64.32 261.025,57.19 259.615,59.57C258.84,60.87 261.291,63.98 265.574,67.11C269.574,70.04 275.814,74.84 279.436,77.78C283.058,80.72 286.668,83.31 287.451,83.54C288.234,83.77 289.401,85.76 290.038,87.95C290.95,91.07 288.023,90.25 276.692,84.23C268.715,79.99 259.344,75.87 255.878,75.07C252.412,74.27 248.423,72.42 247.018,70.96C245.603,69.5 242.019,67.89 239.05,67.39C234.111,66.55 233.904,66.94 236.638,71.99C240.538,79.2 256.932,89.55 278.021,98.11C286.941,101.73 286.946,99.74 277.773,142.42C263.235,210.05 250.79,302.43 250.492,344.84C249.84,438.66 254.81,471.43 285.244,573.75C291.104,593.46 299.609,625.3 304.139,644.52C311.366,675.18 331.508,744 336.256,754.27C337.481,756.93 340.41,757.6 346.898,756.7C351.818,756.02 356.676,754.96 357.691,754.35C358.715,753.74 355.038,748.29 349.534,742.23L349.534,742.23ZM233.343,819.23C237.476,811.74 242.149,805.45 243.738,805.25C245.337,805.06 246.633,803.45 246.619,801.67C246.614,799.01 246.984,798.83 248.809,800.65C250.456,802.31 251.127,801.63 251.518,797.87C251.958,793.59 252.625,793.03 256.264,793.87C259.914,794.71 260.467,794.26 260.293,790.58C260.138,787.42 260.968,786.55 263.516,787.2C268.286,788.42 270.467,783.8 267.094,779.63C264.929,776.96 265.07,776.63 267.732,778.21C272.839,781.25 275.066,778.8 272.432,773.06L270.097,768.01L275.955,769.86C282.292,771.86 284.471,769.45 280.362,765C277.235,761.62 280.41,759.31 285.206,761.47C290.311,763.78 291.972,759.18 287.703,754.56C284.181,750.75 284.274,750.63 289.873,751.64C295.553,752.67 295.677,752.56 294.418,747.61C293.715,744.81 293.978,743.33 295.017,744.33C298.385,747.55 301.26,743.69 299.051,738.91C297.116,734.7 297.395,734.35 301.995,735.2C306.735,736.07 307.072,735.84 306.846,731.79C306.628,727.88 306.858,727.71 309.114,730.04C312.574,733.64 314.482,731.89 316.881,722.95C318.655,716.33 317.96,714.53 311.785,709.65C303.934,703.44 300.845,703.8 300.928,710.9C301.012,717.14 298.392,718.34 294.325,713.93C289.544,708.76 282.281,711.29 284.035,717.53C285.726,723.56 283.951,724.85 275.372,723.83C266.178,722.73 262.848,725.31 268.799,728.93C274.429,732.35 273.801,733.07 264.337,734.04C255.391,734.96 251.041,740.8 258.549,741.79C262.842,742.36 262.306,742.95 254.257,746.57C246.667,749.98 245.862,750.77 249.65,751.08C256.885,751.67 256.577,753.08 248.433,756.78C242.178,759.62 241.499,760.5 244.529,761.86C247.168,763.05 246.967,764.24 243.808,766.13C241.401,767.57 239.808,770.1 240.266,771.76C240.724,773.42 239.131,775.96 236.724,777.4C233.594,779.27 233.374,780.48 235.942,781.64C238.55,782.81 238.385,783.58 235.332,784.39C232.91,785.04 231.462,786.8 231.932,788.51C232.388,790.15 231.742,792.1 230.504,792.83C226.417,795.28 220.342,830.2 223.727,831.83C224.89,832.39 229.219,826.72 233.343,819.23L233.343,819.23Z" style="fill:rgb(132,189,76);fill-rule:nonzero;"/>
        <path d="M556.38,616.92C552.22,615.54 545.03,614.84 540.409,615.35C528.189,616.71 524.516,616.33 523.578,613.61C523.13,612.28 520.897,612.22 518.629,613.47C516.266,614.78 515.373,614.73 516.542,613.35C519.808,609.5 516.427,607.94 511.364,610.97C507.498,613.28 506.827,613.09 507.35,609.87C507.863,606.67 506.851,606.29 501.481,607.67C497.904,608.58 496.173,608.55 497.627,607.6C503.629,603.68 496.92,603.18 490.325,607.05C484.34,610.57 483.573,610.62 485.605,607.39C489.183,601.7 483.433,601.35 477.095,606.87C471.452,611.79 466.905,610.99 471.396,605.87C476.646,599.87 470.703,599.47 463.234,605.32C456.425,610.65 456.02,610.73 458.065,606.36C461.365,599.32 453.437,599.18 447.985,606.18C445.826,608.95 443.514,610.63 442.842,609.91C442.169,609.18 442.741,607.32 444.11,605.76C445.47,604.2 445.86,602.14 444.963,601.17C443.863,599.98 440.61,601.47 434.823,605.82C427.533,611.31 426.592,611.62 428.33,607.99C429.444,605.66 429.573,602.9 428.603,601.86C426.831,599.94 421.667,603.48 415.083,611.13C412.049,614.66 411.917,614.45 413.275,608.25C414.091,604.58 414.245,601.03 413.625,600.36C412.461,599.09 406.328,603.83 400.745,610.32C397.702,613.85 397.569,613.64 398.938,607.44C400.995,598.12 399.295,597.44 390.985,604.3C383.801,610.23 383.781,610.23 384.997,604.67C386.053,599.8 385.67,599.24 381.967,600.23C379.634,600.86 376.25,604.04 374.44,607.3C370.82,613.82 369.422,613.68 369.341,606.81C369.265,600.52 364.979,600.93 360.103,607.69C353.293,617.14 352.774,617.5 353.895,612.02C355.038,606.41 352.938,602.47 349.807,604.34C348.763,604.96 346.481,608.7 344.731,612.64L341.559,619.81L341.599,613.46C341.659,604.9 335.862,605.79 332.858,614.81L330.559,621.7L328.939,617.4C326.775,611.68 322.5,614.34 318.409,623.93C315.867,629.9 316.381,632.72 321.127,638.64C327.523,646.65 333.627,647.9 331.531,640.77C330.273,636.52 330.591,636.47 337.852,639.77L345.495,643.25L342.828,637.81L340.171,632.37L345.989,635.93C355.621,641.81 356.899,642.3 359.094,640.99C360.244,640.3 360.206,637.95 358.999,635.77C357.422,632.9 358.154,633.11 361.644,636.53C367.222,641.99 371.052,640.96 368.83,634.59C367.45,630.64 367.89,630.64 373.45,634.57C380.718,639.7 386.772,638.73 383.565,632.95C381.857,629.89 382.496,630.06 386.144,633.62C391.606,638.97 393.557,638.64 394.276,632.28C394.71,628.4 395.148,628.55 397.972,633.58C401.274,639.46 404.512,639.42 406.186,633.48C406.922,630.85 408.132,631.18 411.601,634.94C416.211,639.92 421.23,639.38 419.76,634.06C418.48,629.44 423.27,629.95 425.928,634.72C429.09,640.42 435.33,639.39 433.812,633.42C432.749,629.25 433.214,629.34 437.984,634.3C443.369,639.89 448.604,639.81 447.035,634.16C445.628,629.05 449.889,628.56 454.308,633.34C458.918,638.33 465.769,636.46 463.295,630.89C462.501,629.11 464.011,629.79 466.643,632.41C471.908,637.63 475.715,636.89 475.383,630.7C475.221,627.57 475.639,627.19 477.371,628.93C478.571,630.15 481.475,631.58 483.817,632.12C487.587,632.99 488.07,632.7 488.155,629.52C488.241,626.54 489.002,626.38 492.779,628.56C496.369,630.63 497.619,630.44 498.736,627.65C499.872,624.83 500.79,624.8 503.288,627.51C505.913,630.35 506.669,630.28 507.972,627.06C509.247,623.9 509.945,623.68 511.93,625.83C513.499,627.53 515.215,627.46 516.827,625.61C518.187,624.05 519.857,623.38 520.54,624.12C521.223,624.85 527.4,623.95 534.272,622.1C541.135,620.26 549.727,619.43 553.356,620.27C562.925,622.48 565.281,619.85 556.381,616.92L556.38,616.92Z" style="fill:rgb(132,189,76);fill-rule:nonzero;"/>
        <path d="M557.36,571.63C552.77,570.43 541.918,570.21 533.233,571.15C524.558,572.09 517.676,572.07 517.95,571.1C518.224,570.13 516.448,569.87 513.987,570.53C511.534,571.18 509.511,570.78 509.485,569.64C509.468,568.5 507.947,568.47 506.111,569.57C504.032,570.8 502.451,570.42 501.931,568.55C501.336,566.4 499.636,566.4 496.041,568.54C492.118,570.89 491.203,570.81 491.95,568.18C493.515,562.61 491.068,562.15 483.507,566.59C477.58,570.07 476.763,570.13 478.759,566.96C482.675,560.73 479.089,559.93 470.219,565.07C462.847,569.34 462.339,569.38 465.691,565.45C470.661,559.61 465.669,558.56 457.136,563.66C450.372,567.7 450.362,567.7 451.528,561.97L452.704,556.24L443.974,562.78L435.246,569.32L436.833,562.4L438.42,555.49L428.677,562.98L418.933,570.47L421.578,562.66L424.233,554.85L415.435,561.24C406.907,567.45 406.679,567.49 407.751,562.54C408.688,558.2 408.262,557.59 404.865,558.5C402.68,559.09 398.89,561.83 396.451,564.6C391.123,570.64 387.979,568.86 392.429,562.33C397.063,555.54 389.026,555.76 383.723,562.57C377.76,570.24 374.73,571.28 376.056,565.2C377.607,558.02 373.453,558.12 366.989,565.42C360.666,572.57 357.971,572.84 359.414,566.19C361.394,557.09 357.056,558.33 346.411,569.92C343.252,573.37 343.149,573.32 344.846,569.14C348.79,559.44 340.206,560.05 335.196,569.83C333.714,572.72 331.873,574.41 331.104,573.58C330.346,572.75 330.308,571.07 331.046,569.84C333.467,565.74 329.817,564.71 324.376,567.96C321.429,569.72 319.069,572.98 319.129,575.2C319.219,578.46 318.769,578.28 316.764,574.26C313.231,567.17 309.209,570.57 309.654,580.27C309.85,584.66 308.744,589.02 307.189,589.95C303.584,592.1 304.827,596.62 310.804,603.08C316.546,609.3 322.074,609.08 320.441,602.69C319.261,598.04 319.29,598.03 323.139,601.96C328.583,607.52 332.973,606.32 330.817,599.87L329.023,594.49L335.153,598.44C342.905,603.44 346.69,601.47 341.044,595.37C338.557,592.67 338.046,590.59 339.833,590.37C341.511,590.17 344.376,591.62 346.211,593.6C351.078,598.87 355.37,597.35 353.471,591.03C352.044,586.27 352.247,585.97 355.027,588.72C362.212,595.84 372.127,596.28 366.295,589.21C364.057,586.5 364.75,586.54 369.305,589.38C379.683,595.86 382.955,595.73 381.426,588.88L380.059,582.75L385.151,588.1C391.68,594.95 395.341,595.13 394.968,588.57C394.688,583.6 394.839,583.61 398.836,588.88C403.744,595.36 409.127,594.73 408.023,587.8C407.317,583.41 407.856,583.56 413.318,589.25C419.13,595.3 424.133,596.03 422.778,590.63C422.427,589.23 423.486,589.39 425.128,590.98C426.782,592.58 429.873,594.31 431.993,594.83C434.996,595.56 435.753,594.33 435.361,589.3L434.863,582.82L438.629,589.1C443.37,597.01 449.546,596.77 447.758,588.74L446.468,582.92L452.091,587.77C461.568,595.95 464.291,596.51 463.791,590.16L463.354,584.56L467.734,589.17C473.561,595.31 477.216,595.22 476.711,588.96C476.299,583.96 476.379,583.95 480.672,588.47C486.446,594.54 490.186,594.54 489.562,588.48C489.085,583.71 489.224,583.69 495.035,587.48C501.989,592.01 505.672,590.87 502.559,585.16L500.388,581.19L505.19,583.63C507.829,584.98 510.976,585.27 512.179,584.29C515.511,581.58 550.529,574.52 556.588,575.35C565.629,576.58 566.175,573.94 557.361,571.63L557.36,571.63ZM161.22,803.39C176.342,787.65 183.586,781.54 186.317,782.24C188.042,782.68 189.049,781.42 188.871,779.05C188.628,775.91 189.303,775.32 192.267,776.07C195.048,776.78 195.63,775.78 194.591,772.03C193.4,767.71 193.745,767.28 197.211,768.77C199.406,769.71 202.081,769.96 203.153,769.32C204.236,768.68 204.093,766.91 202.845,765.4C201.489,763.76 201.724,763.15 203.427,763.89C207.355,765.58 212.931,761.9 210.465,759.23C209.356,758.04 209.041,756.06 209.759,754.84C210.515,753.57 211.439,753.96 211.933,755.75C213.489,761.35 217.791,756.07 216.403,750.27L215.044,744.63L220.688,748.3L226.322,751.96L226.019,744.54C225.672,736.19 227.726,733.51 230.211,739.09C232.582,744.42 237.033,740.84 235.847,734.55C234.651,728.27 237.427,725.79 239.762,731.04C242.132,736.37 246.584,732.79 245.398,726.5C244.213,720.25 247.754,717.18 249.768,722.72C251.779,728.24 255.34,725.16 256.326,717.04C256.88,712.47 257.411,711.64 257.896,714.62C258.606,719.11 261.337,720.49 265.077,718.26C266.15,717.62 266.165,714.44 265.126,711.2C263.016,704.67 265.802,701.02 268.415,706.89C269.325,708.95 271.133,709.95 272.486,709.15C273.82,708.35 274.879,705.6 274.85,703.04C274.821,700.48 275.659,697.87 276.722,697.23C277.785,696.6 278.368,697.86 278.015,700.04C277.051,705.97 281.657,705.05 283.788,698.88C285.457,694.06 285.88,693.77 287.961,696.02C290.715,699 293.324,697.79 294.982,692.78C295.959,689.8 296.386,689.76 297.28,692.57C298.996,697.99 303.732,693.64 306.05,684.51C308.125,676.35 308.125,676.35 297.625,670.35C286.855,664.19 278.445,663.67 283.825,669.49C285.468,671.27 285.443,672.89 283.765,673.1C282.087,673.31 279.5,672.15 278.005,670.54C276.51,668.93 273.816,668.49 272.009,669.57C270.183,670.66 269.972,672.88 271.52,674.56C275.48,678.84 270.959,680.71 265.154,677.19C262.478,675.56 258.851,675.09 257.092,676.14C254.899,677.45 255.203,678.73 258.082,680.24C262.898,682.76 259.77,685.71 254.707,683.43C249.829,681.23 246.367,684.1 249.633,687.64C253.785,692.14 249.932,693.12 242.135,689.56C234.778,686.19 229.39,689.83 235.947,693.72C241.987,697.31 237.499,700.79 228.916,699.19C219.362,697.41 216.536,700.57 223.686,705.04L228.834,708.26L217.48,708.01L206.126,707.77L212.005,711.87C218.875,716.67 217.891,717.8 207.151,717.46C198.154,717.17 194.356,721.16 200.535,724.4C204.207,726.32 203.99,726.71 198.762,727.6C190.553,729 187.759,730.99 190.236,733.67C191.388,734.92 193.313,735.35 194.522,734.63C195.72,733.91 197.409,734.08 198.263,735C199.213,736.04 196.869,736.99 192.167,737.47C187.962,737.9 183.006,739.16 181.16,740.27C177.371,742.52 178.824,745.31 183.47,744.74C185.15,744.54 187.158,745.04 187.917,745.87C188.685,746.7 186.149,747.63 182.277,747.94C172.273,748.73 170.618,750.36 176.321,753.83C180.737,756.51 180.672,756.95 175.701,757.79C169.276,758.89 167.835,761.28 172.364,763.33C174.459,764.27 173.931,765.68 170.761,767.57C168.152,769.13 167.255,770.72 168.768,771.11C170.281,771.5 170.475,772.44 169.2,773.2C167.925,773.96 167.65,775.44 168.581,776.49C169.523,777.55 167.186,783.43 163.393,789.56C150.582,810.29 149.803,815.28 161.219,803.39L161.22,803.39Z" style="fill:rgb(132,189,76);fill-rule:nonzero;"/>
        <path d="M559.923,538.05C558.386,536.38 553.797,534.5 549.729,533.85C538.929,532.14 526.53,527.7 527.076,525.74C527.341,524.8 525.548,524.58 523.096,525.23C520.645,525.89 518.617,525.42 518.596,524.19C518.574,522.97 516.035,522.12 512.966,522.32C507.726,522.65 507.556,522.47 510.2,519.46C514.447,514.6 508.408,514.28 500.44,518.95L493.4,523.07L496.937,517.7C500.032,512.98 499.883,512.48 495.687,513.59C493.058,514.28 489.785,516.12 488.427,517.68C485.669,520.82 482.646,519.05 484.73,515.52C487.544,510.78 483.086,510.64 475.113,515.22C466.908,519.94 466.858,519.94 471.423,514.88C477.764,507.87 472.954,507.35 461.753,513.86C453.463,518.67 452.839,518.75 455.89,514.65C461.742,506.8 457.24,506.59 447.016,514.24L437.471,521.37L439.764,515.58C443.164,506.99 441.072,506.8 430.557,514.78C421.527,521.63 421.202,521.72 423.797,516.66C429.228,506.05 422.451,507.47 411.675,519.21C408.515,522.65 408.413,522.6 410.11,518.43C411.106,515.97 411.14,513.11 410.169,512.06C408.45,510.2 405.743,512.13 398.875,520.06C395.633,523.81 395.602,523.79 396.739,518.08C398.221,510.55 394.226,510.48 387.64,517.92C381.316,525.06 378.623,525.34 380.065,518.69C380.656,515.97 380.72,513.29 380.208,512.73C378.5,510.89 372.598,515.64 369.368,521.47C365.413,528.6 361.281,528.75 362.811,521.71C364.656,513.22 358.6,513.8 353.383,522.61C348.977,530.05 345.424,531.03 347.321,524.28C348.995,518.35 343.027,520.44 338.638,527.32C333.653,535.13 330.148,535.9 331.687,528.84C332.278,526.12 332.332,523.44 331.819,522.88C329.749,520.64 323.371,526.68 321.224,532.91C319.027,539.32 318.644,539.08 316.334,529.98C315.024,524.85 308.425,529.33 308.993,534.95C309.234,537.38 308.339,540.03 306.986,540.84C305.604,541.66 305.006,540.15 305.604,537.37C308.254,525.19 297.754,531.88 294.468,544.47C292.284,552.81 292.825,554.55 299.538,560.79C307.31,568.02 312.305,567.76 308.98,560.3C307.208,556.31 307.416,556.28 312.028,559.91C318.578,565.07 324.089,563.2 320.069,557.19C316.957,552.52 317.006,552.51 326.604,556.08L336.284,559.67L333.588,554.25L330.882,548.83L337.822,553.48C346.179,559.07 350.334,557.62 344.379,551.18C341.891,548.48 341.38,546.4 343.167,546.18C344.846,545.98 348.34,548.11 350.934,550.92C357.23,557.72 361.749,556.84 358.122,549.52L355.221,543.67L361.586,547.7C370.339,553.25 377.115,553.51 372.119,548.1C365.993,541.47 371.897,541.03 379.089,547.58C386.661,554.47 391.213,553.32 387.19,545.54C384.789,540.89 385.196,541.01 390.658,546.53C395.111,551.04 397.771,552.24 400.128,550.83C401.935,549.75 402.198,547.55 400.703,545.94C399.209,544.32 398.593,542 399.321,540.76C400.123,539.41 402.861,540.92 406.233,544.56C412.947,551.83 418.083,551.94 415.175,544.76C413.141,539.73 413.281,539.73 419.785,544.76C427.805,550.96 433.971,550.02 429.736,543.24C427.53,539.7 428.36,540.05 432.924,544.58C440.577,552.18 445.234,551.97 442.708,544.14C440.242,536.48 441.04,536.27 447.241,542.98C450.079,546.04 453.827,548.06 455.675,547.51C457.778,546.88 457.673,545.07 455.4,542.62C449.86,536.61 455.16,535.59 461.719,541.4C468.509,547.41 476.114,546.64 470.457,540.52C468.312,538.2 468.066,536.37 469.873,536.15C471.57,535.94 472.991,536.8 473.014,538.06C473.067,541.2 482.061,546.42 484.709,544.84C485.888,544.13 485.286,541.86 483.364,539.78C481.442,537.7 480.908,535.39 482.164,534.64C483.594,533.78 485.749,535.58 487.904,539.42C490.682,544.37 492.027,545.15 494.878,543.45C496.821,542.29 497.466,540.33 496.313,539.08C495.16,537.83 495.207,536.23 496.405,535.51C497.613,534.79 500.553,536.32 502.954,538.91C506.7,542.97 507.537,543.08 508.881,539.73C510.209,536.43 510.607,536.39 511.467,539.48C512.253,542.33 513.079,542.44 515.235,539.97C516.765,538.24 518.61,537.47 519.357,538.28C520.103,539.08 522.027,538.96 523.631,538C526.491,536.29 535.911,536.8 553.776,539.64C561.538,540.88 562.346,540.67 559.923,538.05ZM295.261,644.55C296.613,638.58 295.541,635.63 289.901,629.78C281.876,621.47 276.555,621.46 278.73,629.77L280.206,635.37L275.438,630.6C272.083,627.26 269.607,626.46 267.123,627.95C264.659,629.42 264.788,630.78 267.523,632.4C269.687,633.68 270.958,635.58 270.348,636.61C269.728,637.65 267.232,636.85 264.786,634.85C258.59,629.78 252.671,632.03 257.487,637.62L261.262,642L252.954,638.76L244.635,635.53L247.368,642.1L250.092,648.68L242.56,645.56C233.348,641.75 229.344,643.57 234.376,649.27L238.102,653.49L231.524,652.15C227.911,651.41 223.66,651.57 222.085,652.51C220.51,653.46 220.257,655.98 221.532,658.12C223.772,661.89 223.635,661.94 217.05,659.63C210.006,657.16 201.17,659.79 207.27,662.54C212.26,664.79 207.345,666.75 201.405,664.87C194.56,662.71 191.291,664.96 195.165,669.16C198.228,672.46 198.081,672.52 188.905,671.73C177.869,670.77 173.195,672.76 178.748,676.06C183.398,678.82 181.228,680.71 174.436,679.81C167.704,678.92 165.26,680.91 168.612,684.54C170.992,687.12 170.521,687.78 165.777,688.58C158.005,689.91 156.561,691.04 160.423,692.79C163.042,693.97 162.136,694.91 155.993,697.41C149.331,700.13 148.819,700.79 152.239,702.34C155.186,703.66 155.139,704.4 152.087,705.22C149.587,705.89 148.752,707.18 149.967,708.49C151.182,709.8 150.36,711.1 147.888,711.76C145.496,712.4 144.582,713.7 145.692,714.9C147.549,716.92 141.364,729.01 131.156,743.29C123.381,754.18 131.107,750.17 143.202,737.04C149.032,730.7 156.692,723.67 160.211,721.41C163.73,719.15 167.337,716.02 168.215,714.45C169.149,712.8 170.448,712.27 171.302,713.19C173.874,715.97 176.517,712.77 175.89,707.66L175.283,702.75L177.165,706.9C178.208,709.18 179.985,710.49 181.125,709.81C182.265,709.13 183.31,706.13 183.446,703.14L183.71,697.72L185.65,701.83C186.721,704.09 188.575,705.36 189.773,704.64C190.971,703.92 192.162,700.84 192.423,697.78L192.89,692.23L194.733,696.4C197.315,702.26 201.871,698.93 203.461,690.02C204.584,683.72 204.838,683.44 205.523,687.81C206.723,695.54 210.953,693.98 212.279,685.34L213.467,677.59L218.859,688.43L221.621,679.9C224.165,672.07 228.356,670.03 226.212,677.68C225.689,679.51 226.23,681.07 227.413,681.13C230.263,681.29 235.939,672.82 234.221,670.97C233.484,670.17 233.977,668.85 235.331,668.04C237.011,667.04 237.588,667.83 237.145,670.53C236.043,677.35 241.022,675.1 243.499,667.67L245.855,660.58L247.487,664.89C249.497,670.22 252.721,668.57 254.274,661.41C254.921,658.45 256.436,655.44 257.634,654.72C258.842,654 259.347,655.63 258.754,658.34C256.759,667.51 263.185,666.41 266.567,657C268.391,651.93 268.461,651.92 269,656.72C269.666,662.65 270.975,662.12 275.391,654.16C278.684,648.21 278.724,648.2 279.216,653.05C279.621,657.07 280.282,657.6 282.939,656.01C284.717,654.95 286.156,653.04 286.131,651.76C286.059,648.11 289.978,646.73 290.903,650.08C292.132,654.51 293.37,652.94 295.261,644.55L295.261,644.55Z" style="fill:rgb(132,189,76);fill-rule:nonzero;"/>
        <path d="M530.582,482.78C524.761,482.76 514.467,482.87 507.707,483.04C500.947,483.21 493.929,482.21 492.107,480.81C490.285,479.41 486.435,478.88 483.548,479.63C480.673,480.39 479.503,480.22 480.947,479.26C482.401,478.31 482.646,476.5 481.494,475.26C480.106,473.76 477.227,474.29 472.966,476.84C465.196,481.48 459.126,480.61 464.466,475.63C469.928,470.53 464.662,470.09 456.376,474.95C450.062,478.66 449.551,478.64 451.326,474.78C454.281,468.36 452.393,468.04 443.256,473.41C435.928,477.73 435.221,477.79 436.978,473.97C440.059,467.29 437.453,466.84 429.978,472.76C422.493,478.68 416.27,479.14 421.922,473.35C428.415,466.7 422.877,466.23 414.294,472.7C406.507,478.58 406.18,478.63 407.198,473.97C408.499,467.98 403.15,468 399.07,473.99C395.283,479.54 392.674,480.92 393.84,476.75C395.673,470.27 391.242,468.71 385.294,473.73C380.499,477.76 379.547,477.9 378.155,474.77C376.945,472.04 375.433,471.81 372.041,473.84C369.557,475.32 367.558,477.57 367.583,478.85C367.658,483.23 363.368,483.92 362.926,479.59C362.32,473.65 358.908,474.3 354.004,481.28C349.794,487.29 349.725,487.3 347.596,482.68C345.054,477.15 340.729,478.79 338.145,486.26C336.116,492.12 331.606,492.63 332.531,486.89C333.548,480.65 328.561,481.89 324.024,489C320.066,495.2 319.91,495.27 319.504,491.23C318.928,485.63 318.08,484.98 314.302,487.24C312.533,488.29 310.425,491.93 309.602,495.32L308.102,501.49L304.38,494.92C299.965,487.12 296.484,488.14 295.275,497.59L294.435,504.12L290.705,497.93C287.607,492.82 286.525,492.26 284.405,494.68C279.717,500.03 281.107,515.81 286.807,521.98C293.744,529.48 297.452,529.61 295.954,522.28L294.777,516.49L298.792,520.53C303.531,525.31 307.421,523.94 304.947,518.38C303.992,516.24 304.55,514.32 306.189,514.12C307.817,513.92 309.826,515.27 310.654,517.13C311.472,518.98 314.588,520.46 317.575,520.41C322.271,520.33 322.747,519.75 321.125,516.11C319.34,512.09 319.587,512.04 326.454,514.89C334.866,518.37 339.526,516.65 335.283,511.62C332.759,508.64 333.455,508.57 339.967,511.17C349.027,514.78 350.322,514.35 348.777,508.25C348.101,505.59 348.563,504.58 349.875,505.83C351.125,507.02 354.019,508.46 356.301,509.02C359.872,509.89 360.529,509.33 360.97,505.05C361.477,500.19 361.586,500.17 365.165,503.93C370.255,509.27 373.94,508.99 373.359,503.31C372.904,498.77 373.173,498.75 379.115,502.73C385.047,506.71 385.365,506.68 385.817,502.08C386.267,497.45 386.435,497.41 389.957,501.23C394.557,506.2 399.434,505.8 399.154,500.48C398.967,497.11 399.685,497.25 403.533,501.32C408.275,506.33 413.305,505.82 411.823,500.47C410.418,495.4 414.656,494.86 419,499.56C424.262,505.25 429.627,504.65 428.07,498.54C426.996,494.34 427.44,494.42 432.156,499.32C438.223,505.61 443.284,505.97 442.961,500.09C442.778,496.61 443.289,496.63 446.656,500.18C451.088,504.84 454.823,503.73 454.509,497.83C454.329,494.38 454.787,494.37 457.972,497.71C462.596,502.58 465.97,502.82 467.742,498.4C468.808,495.75 469.677,495.56 471.545,497.58C473.114,499.28 474.819,499.2 476.442,497.36C477.979,495.6 479.728,495.41 481.062,496.85C482.567,498.48 484.245,498.11 486.699,495.59C488.699,493.54 490.83,492.7 491.684,493.63C492.496,494.52 494.579,494.4 496.299,493.37C498.009,492.35 508.239,489.93 519.007,488.01C542.443,483.83 544.606,482.85 530.582,482.78L530.582,482.78ZM285.58,610.73C288.76,599.42 287.57,596.33 277.993,591.06C269.8,586.55 260.613,585.55 264.326,589.57C265.159,590.47 264.856,591.8 263.648,592.51C262.45,593.23 260.248,592.5 258.753,590.89C257.258,589.28 254.673,588.13 252.994,588.33C251.316,588.54 251.238,590.11 252.818,591.82C256.638,595.96 252.626,598.14 247.884,594.5C243.163,590.88 236.585,592.64 240.204,596.56C244.772,601.5 242.176,603.28 233.656,601.05C223.358,598.35 219.272,600.48 226.046,605.02L231.136,608.43L223.834,606.34C219.807,605.2 214.967,605.19 213.073,606.32C210.435,607.9 210.849,609.18 214.818,611.73L220.013,615.07L211.146,613.92C200.173,612.51 194.659,615.17 200.836,618.91C204.776,621.3 204.373,621.42 196.924,620.07C192.366,619.25 187.729,619.12 186.627,619.78C185.525,620.44 186.317,622.87 188.391,625.17C191.909,629.08 191.8,629.26 186.886,627.83C183.986,626.98 180.166,626.44 178.386,626.62C173.783,627.08 172.296,630.57 175.993,632.23C181.375,634.66 175.943,635.84 169.199,633.71C161.529,631.29 156.999,633.19 162.572,636.5C164.736,637.78 165.851,639.23 165.049,639.71C164.246,640.18 161.103,639.95 158.059,639.19C150.721,637.35 147.461,639.57 151.269,643.84C154.115,647.02 153.946,647.21 148.987,646.37C142.776,645.32 137.867,647.58 140.359,650.35C141.493,651.62 140.661,651.92 137.882,651.25C134.645,650.46 133.165,651.14 131.355,654.22C129.535,657.33 127.917,658.03 124.07,657.4C120.032,656.74 119.107,657.18 119.058,659.77C119.012,661.9 115.011,665.14 106.862,669.62C87.202,680.44 78.236,686.67 81.231,687.44C82.743,687.82 88.437,685.48 93.887,682.22C102.323,677.18 105.619,676.43 116.061,677.14C124.243,677.7 129.229,676.94 131.048,674.86C133.242,672.36 134.074,672.56 135.288,675.89C137.075,680.81 139.494,679.77 143.238,672.46C145.905,667.26 146.034,667.24 148.163,671.86C150.819,677.62 153.702,676.3 156.383,668.09C158.429,661.85 163.591,659.47 161.875,665.55C159.606,673.63 167.181,671.48 170.03,663.23C171.656,658.53 171.82,658.43 172.707,661.63C173.923,666.03 177.71,663.75 181.981,656.05C185.285,650.1 185.314,650.09 185.807,654.94C186.244,659.19 186.852,659.5 190.495,657.32C192.795,655.95 194.968,653.07 195.313,650.93C195.658,648.79 196.932,646.45 198.13,645.73C199.338,645.01 200.028,646.22 199.667,648.42C198.498,655.65 205.759,653.6 209.2,645.73L212.297,638.64L214.115,642.73C216.416,647.9 217.941,646.96 220.796,638.63C222.472,633.76 223.35,632.87 224.09,635.26C225.728,640.55 229.303,639.26 231.436,632.62L233.416,626.45L235.165,630.37C237.236,635.03 239.745,633.98 241.978,627.52C243.494,623.16 243.741,623.1 245.33,626.69C247.516,631.59 250.913,629.66 252.435,622.66C253.083,619.7 254.635,616.66 255.891,615.9C257.293,615.07 257.818,615.85 257.229,617.92C254.909,626.16 262.477,623.89 265.524,615.43C267.348,610.36 267.418,610.35 267.957,615.15C268.659,621.36 272.781,619.5 275.899,611.57C277.981,606.29 277.991,606.29 277.083,611.64C276.566,614.62 276.576,617.52 277.088,618.08C278.871,620.01 284.288,615.33 285.58,610.73L285.58,610.73ZM556.94,417.56C549.306,408.9 536.673,400.79 527.655,398.76C524.737,398.11 521.992,396.31 521.573,394.78C521.143,393.25 519.641,392.69 518.23,393.53C516.655,394.47 515.112,393.57 514.255,391.21C513.302,388.59 511.392,387.73 508.34,388.55C505.07,389.42 504.276,389.01 505.452,387.04C507.727,383.19 501.822,382.23 496.275,385.55C491.694,388.28 491.651,388.24 493.789,383.56C495.678,379.43 495.344,378.85 491.286,379.23C488.711,379.48 484.106,381.11 481.048,382.86L475.504,386.05L479.479,380.14C484.514,372.67 480.517,371.52 470.447,377.53L462.678,382.18L464.967,375.98L467.255,369.78L456.255,377.33L445.265,384.88L446.699,378.93C447.489,375.66 447.695,372.52 447.172,371.95C445.656,370.31 437.49,375.86 433.984,380.9C430.903,385.35 430.841,385.32 431.884,380.22C433.509,372.25 431.51,371.92 422.544,378.68C414.882,384.47 414.447,384.56 415.41,380.15C416.576,374.77 414.242,371.26 410.86,373.28C409.594,374.04 406.611,377.43 404.229,380.82C399.695,387.27 396.269,387.01 398.925,380.41C402.698,371.03 393.481,374 387.971,383.94C384.65,389.93 384.64,389.93 384.125,384.87C383.402,377.79 380.255,378.34 374.037,386.62C368.237,394.33 367.365,394.47 367.278,387.67C367.19,380.67 362.972,382.08 357.784,390.85C352.831,399.21 350.554,399.43 351.38,391.47C352.177,383.88 347.342,384.81 342.103,393.25C337.048,401.39 333.281,403.67 335.99,396.96C337.807,392.45 334.83,388.23 331.313,390.33C329.989,391.12 327.25,395.08 325.226,399.12C321.248,407.05 321.629,407.24 318.874,396C317.888,391.95 312.092,396.65 308.8,404.17L305.791,411.05L304.081,406.41C303.131,403.86 302.034,400.64 301.644,399.27C300.464,395.13 296.007,399.32 294.004,406.46L292.123,413.14L288.614,407.33C283.424,398.74 279.758,401.91 278.771,415.86C278.435,420.55 278.236,420.57 274.117,416.3L269.807,411.84L266.536,424.86C263.086,438.6 264.194,440.44 279.752,446.92L285.532,449.33L282.286,444.24L279.048,439.14L286.46,442.77C297.433,448.14 302.838,445.66 293.872,439.38C285.938,433.82 289.244,433.06 299.25,438.14C308.617,442.9 313.602,440.74 308.019,434.34L303.529,429.2L310.033,432.35C319.593,436.98 324.173,437.32 325.71,433.51C326.644,431.18 328.061,430.96 330.972,432.68C337.104,436.33 339.888,432.96 335.7,426.98L331.927,421.61L338.922,425.48C347.849,430.41 351.651,429.23 349.786,422.12L348.309,416.51L352.212,420.34C357.303,425.33 366.653,425.5 366.718,420.6C366.739,418.74 365.245,416.27 363.398,415.11C361.551,413.96 361.278,412.87 362.806,412.68C364.325,412.49 366.74,413.6 368.17,415.15C375.075,422.62 383.326,421.95 378.49,414.3L375.538,409.63L381.804,413.5C389.118,418.03 392.511,416.88 390.874,410.42C389.677,405.67 392.348,406.88 397.231,413.28C398.639,415.13 402.104,416.6 404.941,416.55C410.426,416.46 410.561,415.69 406.448,407.57C405.353,405.42 406.582,405.92 409.502,408.83C419.225,418.49 431.849,417.87 422.872,408.16C420.62,405.72 419.731,403.15 420.9,402.45C422.059,401.75 425.162,403.86 427.773,407.13C433.361,414.13 440.141,412.25 436.924,404.59C435.345,400.83 436.164,401.14 441.108,406.2C447.552,412.78 452.342,412.78 449.948,406.2C447.663,399.93 451.425,399.96 455.741,406.25C460.026,412.51 464.517,412.01 464.157,405.32C463.979,401.92 464.51,401.94 467.855,405.46C472.075,409.91 474.698,409.46 476.223,404.05C476.986,401.35 477.853,401.83 480.275,406.31C483.255,411.82 488.088,412.2 487.99,406.91C487.903,402.51 491.463,402.5 493.899,406.89C496.379,411.37 501.401,410.7 500.229,406.04C499.877,404.64 501.429,405.36 503.682,407.64C506.126,410.11 508.329,410.84 509.157,409.44C510.787,406.69 530.207,408.41 538.287,412.02C541.378,413.4 548.472,417.07 554.063,420.18L564.233,425.83L556.94,417.56L556.94,417.56Z" style="fill:rgb(132,189,76);fill-rule:nonzero;"/>
        <path d="M541.375,433.42C539.197,431.06 518.777,430.71 514.999,432.97C513.289,433.99 510.367,434.15 508.529,433.32C506.681,432.49 503.741,432.66 501.992,433.71C500.165,434.8 498.797,434.48 498.767,432.95C498.727,431.06 497.213,431.67 493.52,435.06C489.192,439.03 488.432,439.21 488.925,436.17C489.63,431.79 486.462,431.32 480.14,434.88C475.56,437.45 475.539,437.43 478.708,433.64C481.69,430.08 481.568,429.87 477.074,431C474.393,431.67 470.498,433.81 468.411,435.76C464.713,439.22 464.65,439.17 465.786,433.78C466.936,428.3 466.886,428.3 459.328,433.81C450.838,440 449.538,440 452.528,433.82C455.598,427.48 450.026,428.47 443.046,435.49C436.584,441.99 433.614,441.99 436.235,435.48C439.86,426.48 433.474,428.77 423.07,440.2C420.58,442.93 420.272,442.12 421.522,436.11L423.085,428.61L415.462,434.57C408.241,440.21 407.884,440.27 408.879,435.72C409.454,433.07 409.502,430.45 408.979,429.9C407.549,428.34 399.336,433.79 396.214,438.38C394.261,441.24 392.974,441.99 391.939,440.86C391.117,439.98 391.561,437.98 392.929,436.42C397.919,430.73 392.535,430.5 385.452,436.11C378.742,441.42 378.414,441.46 379.399,436.92C379.974,434.27 380.022,431.65 379.509,431.1C378.048,429.52 369.849,435.02 366.633,439.73C363.823,443.85 363.75,443.8 363.845,437.88C363.962,430.8 360.98,431.79 354.517,441C349.678,447.89 347.698,447.55 349.315,440.11C350.876,432.93 345.876,433.79 340.919,441.56C336.182,448.98 332.681,450.17 333.682,444.01C334.667,437.91 330.368,438.97 326.614,445.76C322.876,452.49 318.952,453.61 319.916,447.68C321.173,439.91 315.666,441.34 312.41,449.63C308.95,458.4 307.504,458.97 307.413,451.57C307.323,444.53 302.528,445.99 298.58,454.26L295.006,461.75L292.161,456.17C288.66,449.29 282.824,451.59 282.336,460.03C282.029,465.4 281.969,465.4 278.899,459.74C275.829,454.07 273.385,453.83 270.56,458.9C267.491,464.41 269.856,477.87 274.83,483.27C280.413,489.32 284.353,488.98 284.004,482.48C283.825,479.06 284.336,479.07 287.617,482.53C292.603,487.78 297.96,487.03 296.277,481.32C295.041,477.11 295.32,477.08 300.797,480.81C306.629,484.79 313.537,483.38 312.301,478.47C311.921,476.94 312.711,476.94 314.281,478.46C318.181,482.25 323.975,477.69 320.515,473.56C318.247,470.85 319.089,470.89 324.164,473.72C332.309,478.27 338.615,475.29 333.652,469.23C330.542,465.45 330.883,465.47 336.32,469.36C343.75,474.69 353.024,472.53 348.12,466.62C345.613,463.58 346.252,463.57 351.924,466.52C359.772,470.6 365.441,468.52 362.077,462.8C360.28,459.75 361.309,459.91 366.749,463.52C373.916,468.26 379.409,467.98 375.353,463.07C373.923,461.34 375.314,461.37 379.118,463.16C384.938,465.9 390.638,465.2 387.776,462.09C387.008,461.26 387.364,460 388.562,459.28C389.77,458.56 392.292,459.63 394.16,461.65C396.039,463.68 398.945,465.17 400.624,464.97C402.302,464.76 402.69,463.53 401.494,462.24C398.186,458.66 402.872,457.05 407.122,460.31C411.864,463.94 417.512,462.35 415.534,457.94C414.534,455.7 415.344,455.88 418.026,458.48C423.083,463.41 428.516,465.88 431.029,464.38C432.102,463.74 431.733,461.86 430.195,460.19C428.658,458.53 428.385,456.58 429.593,455.87C430.791,455.15 433.623,456.56 435.886,459C441.083,464.62 447.123,464.1 444.632,458.25C442.836,454.02 442.964,453.99 448.012,457.56C453.58,461.48 461.437,460.91 457.691,456.85C456.474,455.54 456.467,453.87 457.665,453.16C458.873,452.44 461.428,453.55 463.349,455.62C467.319,459.92 474.857,457.14 471.053,452.78C469.371,450.86 470.733,450.72 475.805,452.29C483.85,454.78 488.273,453.29 484.836,449.23C483.214,447.31 484.19,447.23 488.15,448.95C491.895,450.58 493.759,450.47 493.721,448.63C493.657,444.95 515.144,437.86 531.211,436.26C537.654,435.63 542.229,434.35 541.375,433.42L541.375,433.42ZM276.09,566.3C276.92,559.95 275.865,557.98 268.547,552.18C263.871,548.47 259.184,545.95 258.141,546.58C257.087,547.21 257.209,548.78 258.404,550.07C259.6,551.37 259.212,552.6 257.534,552.8C255.855,553.01 253.291,551.9 251.849,550.33C247.879,546.03 242.893,547.65 244.39,552.75C245.7,557.2 245.66,557.21 240.477,554.07C234.091,550.19 230.946,551.64 232.939,557.53C234.379,561.81 234.3,561.84 229.782,558.44C223.821,553.96 217.276,555.6 219.542,561.01C221.144,564.83 220.729,564.91 213.187,562.3C203.727,559.03 200.638,560.09 203.962,565.47C206.159,569.03 205.715,569.13 197.973,566.7C187.756,563.49 184.076,565.2 189.104,570.83L192.849,575.03L185.751,572.83C177.848,570.38 170.882,573.03 174.618,577.07C176.593,579.21 175.866,579.44 170.512,578.35C162.164,576.66 159.015,578.57 163.008,582.9C165.784,585.93 165.141,586.05 157.261,583.99C146.964,581.3 142.606,582.88 147.046,587.68L150.152,591.04L143.635,589.72C135.732,588.12 132.085,589.88 135.554,593.64C139.769,598.2 137.577,600.04 129.424,598.78C120.15,597.35 115.672,599.44 121.099,602.66C125.75,605.42 123.58,607.31 116.788,606.41C114.138,606.06 110.502,606.65 108.714,607.72C106.724,608.91 106.772,610.25 108.815,611.17C112.543,612.85 109.776,615.47 105.441,614.36C101.015,613.23 95.475,617.51 99.193,619.19C101.781,620.36 100.926,621.3 95.133,623.66C89.029,626.15 88.414,626.93 91.463,628.3C94.155,629.52 93.988,630.26 90.808,631.11C88.425,631.75 85.921,634.26 85.243,636.69C84.555,639.13 80.506,644.3 76.233,648.19C58.809,664.07 54.945,668.3 57.341,668.92C58.844,669.3 61.565,667.61 64.107,664.73C69.566,658.53 93.33,646.07 96.575,647.7C98.234,648.54 99.611,647.3 100.792,643.88C102.411,639.23 102.738,639.01 104.862,641.31C107.882,644.58 111.345,642.39 111.295,637.24C111.26,633.72 111.501,633.74 113.043,637.37C115.498,643.12 118.972,640.45 119.973,632.06L120.798,625.12L123.962,630.84C127.998,638.15 132.018,636.09 130.953,627.26C130.513,623.65 130.702,620.37 131.368,619.97C132.034,619.57 133.818,621.67 135.331,624.64C138.786,631.43 142.222,629.64 143.084,620.59C143.445,616.83 144.522,614.54 145.478,615.51C146.425,616.48 146.61,618.28 145.882,619.51C145.154,620.74 145.139,622.39 145.865,623.17C148.149,625.64 153.025,621.29 154.239,615.69C155.895,608.07 159.225,606.88 159.117,613.95C159.021,619.5 159.264,619.72 162.965,617.51C165.129,616.21 168.021,612.13 169.395,608.42C170.769,604.72 171.563,603.41 171.155,605.5C170.757,607.59 171.238,610.18 172.241,611.26C175.037,614.29 180.591,609.88 180.527,604.67C180.497,602.11 181.412,599.45 182.572,598.76C183.722,598.07 184.238,599.03 183.716,600.89C182.582,604.94 185.551,608.7 188.499,606.94C189.649,606.25 191.38,602.33 192.331,598.23C193.291,594.12 194.813,591.57 195.721,592.55C196.629,593.53 196.773,595.34 196.044,596.57C195.317,597.81 195.302,599.45 196.028,600.23C198.312,602.71 203.188,598.35 204.402,592.75C206.065,585.09 209.389,583.95 209.274,591.08C209.142,599.28 213.107,598.84 217.233,590.19C221.395,581.48 224.068,579.47 222.618,586.16C221.159,592.88 225.656,592.65 229.457,585.8C232.415,580.46 232.612,580.4 234.006,584.24C235.768,589.08 238.108,588.05 240.401,581.41C242.421,575.59 246.949,575.03 246.021,580.72C245.11,586.37 250.488,582.91 252.739,576.4C253.672,573.71 255.117,572.25 255.959,573.16C256.804,574.08 256.896,575.83 256.167,577.06C255.438,578.29 255.425,579.94 256.151,580.72C258.243,582.99 262.431,579.53 264.441,573.87C266.229,568.85 266.356,568.81 267.909,572.98C270.222,579.2 274.909,575.38 276.09,566.3L276.09,566.3Z" style="fill:rgb(132,189,76);fill-rule:nonzero;"/>
        <path d="M263.56,527.51C264.296,519.22 253.07,505.06 248.113,508.02C246.393,509.05 246.387,511.34 248.104,513.19C252.064,517.48 245.977,517.18 240.403,512.82C233.854,507.7 228.955,510.79 234.065,516.81C236.579,519.78 236.876,520.94 234.744,519.53C232.694,518.17 229.106,515.79 226.756,514.24C221.608,510.85 218.688,514.46 222.894,519.01C226.8,523.23 220.628,522.86 215.107,518.55C209.218,513.94 204.157,516.32 207.867,521.97L210.972,526.7L204.006,522.82C194.735,517.66 190.423,519.34 194.111,526.69L197.098,532.64L190.759,529.4C178.761,523.26 171.02,524.96 177.154,532.39C179.864,535.67 179.776,535.7 175.194,533.09C172.547,531.59 167.014,530.69 162.898,531.09C155.43,531.82 155.431,531.83 161.346,535.87C168.76,540.91 167.543,541.82 157.734,538.58C147.844,535.32 144.814,537.36 150.162,543.69C152.965,546.99 153.109,547.92 150.588,546.37C146.221,543.67 135.985,542.19 133.202,543.86C132.178,544.47 133.037,546.86 135.102,549.17L138.857,553.38L131.748,551.17C127.838,549.96 123.683,549.54 122.524,550.24C121.354,550.94 122.088,553.4 124.153,555.71L127.908,559.92L120.799,557.71C113.732,555.52 105.803,557.77 108.877,561.1C109.847,562.14 107.947,562.8 104.172,562.73C100.688,562.67 97.613,563.44 97.332,564.44C97.06,565.44 94.291,566.31 91.184,566.36C86.938,566.44 85.754,567.05 86.348,568.83C86.976,570.69 85.817,571.39 80.946,572.06C76.165,572.73 74.907,573.46 75.464,575.29C75.86,576.6 74.42,578.13 72.264,578.71C70.117,579.28 69.091,580.55 69.987,581.52C70.883,582.48 70.031,583.47 68.095,583.71C66.169,583.95 64.383,585.74 64.137,587.69C63.891,589.65 61.377,594.54 58.55,598.55C52.214,607.55 46.518,620.82 48.926,620.96C49.909,621.01 54.248,616.19 58.582,610.25C66.267,599.71 79.972,588.64 82.267,591.12C82.897,591.8 84.887,591.48 86.695,590.4C88.503,589.32 90.519,589.44 91.169,590.65C92.48,593.07 96.683,590.71 101.813,584.7C104.733,581.28 105.007,581.35 104.417,585.29C103.56,591.01 107.963,591.22 111.255,585.6C114.847,579.46 116.138,579.13 116.655,584.22C117.03,587.92 117.788,588.23 121.296,586.14C123.596,584.76 125.768,581.88 126.113,579.74C127.032,574.05 130.664,572.72 131.195,577.88C131.559,581.55 132.319,581.9 135.605,579.93C137.789,578.63 140.834,575.11 142.359,572.12C145.062,566.85 145.151,566.83 145.212,571.48C145.297,578.77 150.023,577.51 154.015,569.13C157.348,562.15 157.597,561.96 158.032,566.16C158.622,571.99 159.444,572.72 163.01,570.59C164.624,569.63 166.476,566.4 167.123,563.43C168.549,556.85 171.139,556.51 171.787,562.81C172.187,566.76 172.874,567.05 176.633,564.8C179.039,563.36 180.803,560.19 180.563,557.76C180.311,555.33 181.216,552.68 182.56,551.88C183.941,551.05 184.55,552.56 183.941,555.34C183.349,558.05 183.295,560.72 183.807,561.28C185.889,563.53 192.266,557.48 194.355,551.28L196.57,544.68L197.168,549.8C197.969,556.68 200.994,556.42 205.048,549.12C206.876,545.82 209.442,543.17 210.726,543.24C212.021,543.32 211.972,545.06 210.622,547.12C209.272,549.19 208.769,551.52 209.505,552.31C211.735,554.73 216.65,550.52 219.677,543.6C222.889,536.25 225.21,536.61 223.552,544.21C221.922,551.75 226.861,550.36 230.764,542.18C234.534,534.28 236.807,534.17 235.113,541.98C234.183,546.27 234.475,546.65 237.393,544.91C239.239,543.8 241.034,541.15 241.379,539.01C242.308,533.32 245.93,531.99 246.461,537.15C247.028,542.76 251.423,540.61 253.879,533.52C255.738,528.17 258.83,529.42 257.289,534.9C256.553,537.53 257.071,537.84 259.651,536.3C261.468,535.21 263.228,531.26 263.559,527.51L263.56,527.51ZM545.255,356.74C543.879,355.25 537.449,353.02 530.977,351.8C524.497,350.58 516.614,347.97 513.449,346C510.295,344.04 506.029,342.55 503.977,342.7C501.209,342.9 500.842,342.27 502.527,340.29C504.212,338.33 502.918,337.92 497.707,338.75C493.793,339.37 491.798,339.12 493.274,338.19C497.904,335.28 492.396,332.22 486.298,334.31C480.788,336.19 480.622,336.09 483.044,332.19C485.111,328.87 484.79,328.17 481.393,328.56C479.069,328.83 474.685,330.48 471.637,332.24L466.093,335.43L469.318,330.53C473.278,324.52 469.788,324.03 460.738,329.34C454.212,333.17 454.039,333.13 456.216,328.44C458.151,324.24 457.825,323.62 453.882,324.08C451.359,324.37 446.743,325.99 443.632,327.68C439.56,329.89 438.9,329.89 441.272,327.68C446.555,322.77 440.225,321.74 432.67,326.28C428.883,328.56 425.301,329.9 424.714,329.27C424.138,328.64 424.644,327.54 425.851,326.82C427.05,326.1 427.405,324.83 426.637,324C425.869,323.17 422.379,324.2 418.881,326.29C413.45,329.54 412.258,329.51 410.75,326.1C409.082,322.36 408.47,322.51 400.764,328.58C392.963,334.73 392.558,334.83 392.504,330.47C392.429,324.2 388.054,324.47 382.172,331.12C377.659,336.21 377.236,336.33 376.857,332.57C376.202,326.15 370.218,328.31 366.377,336.36C362.795,343.86 361.609,344.1 360.932,337.46C360.318,331.4 355.55,332.97 352.356,340.28C348.791,348.43 347.73,348.92 343.514,344.36C339.682,340.21 333.394,342.29 334.762,347.25C336.194,352.43 331.277,353.17 326.892,348.43C321.896,343.03 318.3,344.63 315.332,353.58L313.145,360.16L310.135,354.34C306.462,347.24 300.745,349.34 299.954,358.08L299.448,363.65L297.035,358.79C293.862,352.4 289.129,353.2 287.083,360.47L285.441,366.28L283.311,361.64C280.541,355.62 274.503,358.76 274.071,366.44L273.766,371.84L270.66,368.48C266.54,364.02 263.69,366.07 262.635,374.24C261.991,379.31 263.792,383.11 270.079,389.91C276.002,396.32 278.996,398.26 280.493,396.68C281.653,395.47 281.639,392.48 280.468,390.06C278.591,386.17 278.833,385.86 282.438,387.49C284.697,388.5 287.741,390.64 289.214,392.23C293.067,396.4 296.629,393.34 294.937,387.31C293.397,381.8 298.013,379.69 302.047,384.06C303.392,385.51 307.12,387.18 310.334,387.77C316.095,388.82 316.153,388.78 314.839,384.94C314.104,382.79 313.065,379.72 312.531,378.11C311.911,376.21 315.393,376.6 322.436,379.23L333.302,383.28L329.549,377.9C324.791,371.07 327.425,369.42 335.684,374.05C344.12,378.78 349.859,377.05 344.883,371.28L341.107,366.89L348.755,369.94C357.765,373.54 360.387,372.55 359.343,365.97L358.573,361.15L361.78,364.37C365.774,368.38 371.438,367.93 370.26,363.69C368.826,358.47 373.034,357.91 377.495,362.74C382.415,368.07 386.397,366.72 384.291,360.44C382.897,356.25 383.075,356.22 388.109,359.72C394.738,364.33 399.889,362.99 397.673,357.22C396.047,352.99 396.195,352.95 402.532,355.99C411.348,360.22 411.814,360.15 412.392,354.61C412.857,350.07 413.157,350.08 417.494,354.66C422.62,360.08 426.959,359.21 424.77,353.21C422.829,347.88 428.573,347.61 431.023,352.92C433.256,357.78 440.103,358.06 438.761,353.24C437.29,347.89 441.578,347.52 446.274,352.59C449.753,356.35 450.951,356.67 451.688,354.04C453.156,348.85 455.818,348.21 459.48,352.18C461.806,354.69 463.925,355.02 466.454,353.29C469.156,351.43 470.759,351.83 472.694,354.84C474.751,358.04 475.872,358.23 478.066,355.72C479.988,353.53 482.053,353.27 484.767,354.88C486.922,356.16 489.157,356.42 489.73,355.45C490.294,354.49 492.33,354.41 494.25,355.27C496.16,356.14 498.332,355.83 499.07,354.59C499.797,353.34 501.082,353.07 501.924,353.97C502.757,354.88 508.822,355.65 515.394,355.68C521.966,355.72 528.224,356.7 529.301,357.86C530.368,359.02 532.161,359.42 533.292,358.74C534.413,358.07 537.209,358.51 539.509,359.72C544.718,362.44 548.649,360.41 545.255,356.74L545.255,356.74Z" style="fill:rgb(132,189,76);fill-rule:nonzero;"/>
        <path d="M255.796,494.34C256.868,489.41 245.136,471.7 240.632,471.45C239.487,471.38 238.237,473.94 237.862,477.12L237.16,482.92L233.977,477.2C230.481,470.92 226.009,471.57 226.203,478.33C226.295,481.63 225.876,481.48 223.896,477.53C222.571,474.87 219.429,472.09 216.916,471.34C212.906,470.15 212.431,470.93 213.039,477.59L213.733,485.2L207.123,479.18C199.783,472.49 196.669,472.78 197.823,480.05C198.529,484.45 198.136,484.39 193.209,479.29C187.068,472.93 184.107,473.6 183.685,481.46C183.399,486.84 183.319,486.84 178.037,481.32C172.542,475.57 165.731,476.25 167.429,482.39C168.861,487.57 163.944,488.31 159.558,483.57C155.022,478.67 146.931,480.71 151.073,485.71C152.33,487.21 149.969,486.84 145.834,484.88C136.661,480.53 132.148,481.52 134.361,487.39C135.921,491.53 135.644,491.57 129.403,488.11C122.179,484.1 114.646,486.45 119.139,491.31C123.249,495.77 119.469,496.81 111.836,493.32C103.514,489.51 99.72,491.5 103.841,497.52L106.967,502.09L99.55,499.56C90.571,496.49 86.767,498.14 90.254,503.58C92.773,507.5 92.626,507.55 84.319,505.37C73.798,502.61 70.164,504.44 75.079,510.01L78.806,514.24L72.226,512.89C64.798,511.37 57.184,514.55 62.503,516.94C66.221,518.62 63.453,521.24 59.119,520.13C54.135,518.86 49.235,523.32 53.497,525.25C56.62,526.67 56.508,526.98 52.897,526.78C47.59,526.5 39.017,531.09 42.977,532.1C44.571,532.51 43.826,533.29 41.187,534C38.706,534.66 36.705,536.36 36.727,537.77C36.759,539.18 30.197,547.22 22.159,555.64C14.113,564.05 6.302,572.9 4.797,575.3C1.114,581.17 5.92,581.16 9.922,575.29C13.99,569.32 43.054,548.7 44.773,550.57C45.478,551.33 46.753,550.23 47.6,548.11C48.876,544.95 49.583,544.73 51.579,546.89C53.832,549.34 54.219,549.13 57.151,543.84C59.829,539.01 60.417,538.62 61.136,541.19C62.076,544.61 68.773,541.65 68.702,537.85C68.623,533.76 72.31,533.19 74.013,537.02C76.233,541.99 80.195,539.28 80.774,532.4L81.24,526.84L82.938,531.1C85,536.28 89.248,534.34 93.341,526.34C96.08,521 96.178,520.97 96.644,525.54C97.044,529.49 97.718,529.89 100.859,528.02C102.907,526.79 105.351,523.59 106.284,520.9C108.175,515.43 111.137,516.83 109.769,522.54C109.064,525.53 109.566,525.57 112.554,522.79C114.555,520.92 117.676,517.67 119.484,515.59C122.641,511.93 122.734,511.99 121.732,517.09C121.152,520.01 121.108,522.86 121.62,523.41C123.104,525.02 131.069,519.61 131.018,517.03C130.994,515.76 132.094,514.04 133.476,513.22C135.274,512.15 135.704,512.67 135.016,515.11C134.495,516.97 134.566,519.04 135.184,519.7C136.795,521.44 144.804,516.26 144.754,513.51C144.729,512.24 145.81,510.54 147.154,509.74C148.496,508.93 148.848,511.36 147.947,515.12L146.297,521.97L152.974,517.98C156.645,515.78 159.939,512.24 160.284,510.09C160.629,507.95 161.951,505.58 163.217,504.83C164.483,504.07 164.833,506.3 163.997,509.79C163.15,513.28 162.893,516.59 163.416,517.16C165.134,519.02 172.238,513.59 174.493,508.71C178.313,500.47 180.797,501.06 178.611,509.7C176.706,517.17 176.929,517.73 180.872,515.38C183.278,513.94 186.235,510.63 187.442,508.01C191.216,499.84 195.985,498.61 194.142,506.28C192.724,512.15 193.032,512.8 196.298,510.85C198.395,509.6 201.413,506.65 203.016,504.3C207.355,497.93 210.248,499.35 207.606,506.54L205.283,512.83L210.08,508.82C212.721,506.62 216.925,502.9 219.428,500.56L223.989,496.29L221.809,502.29C219.363,509.05 224.179,509.84 228.564,503.4C230.111,501.13 233.112,498.23 235.229,496.97C238.708,494.89 238.861,495.11 236.808,499.35C233.871,505.41 238.348,505.69 242.428,499.7C246.242,494.11 249.788,493.88 248.914,499.29C247.929,505.37 254.407,500.71 255.796,494.34L255.796,494.34ZM554.012,292.69C552.869,291.44 543.178,291.25 521.334,292.04C516.744,292.2 512.193,291.5 511.222,290.46C510.242,289.43 508.496,289.16 507.327,289.86C506.167,290.55 504.832,289.77 504.375,288.11C503.842,286.17 502.245,285.86 499.925,287.25C497.703,288.58 495.623,288.24 494.515,286.38C493.162,284.11 491.509,284.23 487.862,286.86C483.996,289.67 483.126,289.67 483.582,286.86C484.31,282.36 480.931,282.2 473.736,286.41C468.523,289.45 468.209,289.37 470.01,285.45C473.055,278.84 470.597,278.37 462.81,284.08C458.082,287.54 455.978,288.33 456.509,286.46C456.949,284.91 456.419,282.68 455.331,281.51C453.815,279.87 451.716,280.74 446.163,285.33C438.979,291.26 438.969,291.26 440.175,285.7C441.293,280.53 441.045,280.21 436.742,281.36C434.192,282.05 431.698,284.04 431.201,285.8C430.703,287.55 429.321,289.58 428.113,290.3C426.895,291.03 426.351,290.1 426.872,288.22C428.604,282.08 425.408,281.98 418.176,287.96C411.794,293.23 411.134,293.4 411.736,289.67C412.706,283.67 408.353,284.3 402.414,291C397.488,296.57 397.34,296.6 398.389,291.78C399.744,285.51 394.972,285.82 389.203,292.37C385.049,297.09 380.873,296.98 383.685,292.23C384.414,291 384.417,289.35 383.692,288.57C381.941,286.66 371.685,292.91 371.736,295.85C371.76,297.12 370.651,298.84 369.278,299.66C367.481,300.73 367.05,300.21 367.738,297.77C368.26,295.91 367.795,293.43 366.707,292.25C364.764,290.14 362.02,291.97 355.57,299.68C353.073,302.66 352.342,302.46 350.43,298.32C347.854,292.73 343.364,294.26 339.802,301.96C336.446,309.23 333.895,309.73 334,303.11C334.082,298 333.54,297.3 330.134,298.21C327.948,298.8 324.858,301.19 323.254,303.53C318.428,310.63 315.584,311.07 315.684,304.72C315.774,299.08 315.576,298.93 311.334,301.46C308.888,302.92 306.481,307.26 305.985,311.1C305.339,316.14 304.729,316.99 303.814,314.16C299.69,301.41 297.208,301.54 291.97,314.78C288.528,323.5 288.6,323.53 285.91,312.55C284.715,307.66 277.327,314.73 276.106,321.92L274.894,329.09L270.935,322.42C267.153,316.03 266.857,315.93 263.927,320.23C257.765,329.28 265.841,347.22 277.298,349.93C280.583,350.7 280.673,350 277.713,346.75C272.403,340.93 276.496,339.43 285.359,343.94C294.758,348.72 299.13,346.53 291.423,340.91L285.679,336.72L294.426,340.28C304.761,344.48 308.42,343.27 303.294,337.33L299.616,333.08L306.702,336.43C315.482,340.57 319.792,339.34 316.203,333.71C313.703,329.77 314.042,329.74 320.887,333.26C329.484,337.68 333.811,336.25 329.962,330.26C327.41,326.28 327.687,326.23 335.525,329.28L343.781,332.48L341.095,327.05C338.735,322.25 338.932,321.86 342.828,323.67C359.388,331.39 362.855,331.17 359.288,322.63L357.136,317.46L362.498,321.1C369.734,326.01 375.619,324.04 370.708,318.34C368.563,315.86 368.37,314.62 370.261,315.49C372.091,316.33 376.077,318.17 379.119,319.57C384.206,321.93 384.669,321.79 385.009,317.84C385.451,312.75 388.827,312.51 393.224,317.26C397.461,321.84 403.367,320.91 401.181,316C398.684,310.39 402.551,309.13 408.934,313.48C414.578,317.33 419.924,316.73 416.167,312.67C415.014,311.43 415.061,309.82 416.269,309.1C417.467,308.38 419.881,309.31 421.629,311.17C423.377,313.03 426.712,314.99 429.053,315.52C432.601,316.34 433.01,315.81 431.526,312.32C429.291,307.09 434.012,306.24 438.473,311.07C442.465,315.39 448.303,315.18 447.075,310.76C445.631,305.54 449.849,304.99 454.31,309.81C456.616,312.31 459.48,313.76 460.688,313.04C461.886,312.32 462.242,311.05 461.474,310.22C458.272,306.75 464.339,306.71 469.411,310.17C475.846,314.54 480.737,312.84 476.477,307.7C473.637,304.27 473.686,304.25 478.433,306.95C483.719,309.97 490.905,309.04 487.991,305.71C486.855,304.41 487.93,304.14 490.928,304.98C493.531,305.71 496.158,305.47 496.767,304.44C497.376,303.41 499.357,303.24 501.175,304.06C502.993,304.88 505.447,304.44 506.638,303.08C507.819,301.73 518.852,299.38 531.143,297.86C555.2,294.89 555.901,294.73 554.013,292.69L554.012,292.69ZM244.391,458.06C249.453,450.89 249.384,441.98 244.214,433.57C239.32,425.61 234.941,425.8 233.65,434.03C232.977,438.26 232.85,438.3 231.694,434.61C229.139,426.45 226.264,422.61 223.82,424.08C222.438,424.9 221.95,427.83 222.73,430.59C224.85,438.15 221.966,438.08 217.453,430.47C215.001,426.32 212.198,423.87 210.183,424.12C208.386,424.34 207.461,425.11 208.133,425.83C208.794,426.55 209.087,429.34 208.773,432.03C208.247,436.54 207.846,436.36 203.637,429.69C198.359,421.31 196.277,421.46 196.926,430.18C197.372,436.28 197.31,436.25 192.12,428.36C186.458,419.75 181.976,419.55 182.084,427.91C182.17,434.53 179.194,435.45 177.477,429.34C176.682,426.51 175.44,423.55 174.725,422.78C172.472,420.34 167.062,424.97 167.285,429.14C167.449,432.29 166.26,431.8 161.495,426.73C155.227,420.07 150.404,420.02 152.81,426.65C155.12,432.98 150.683,433.22 146.898,426.96C142.361,419.45 136.254,420.02 137.768,427.81L138.898,433.65L132.373,428.42C124.496,422.12 118.509,423.19 121.783,430.31C124.143,435.44 124.123,435.44 116.159,430.91C107.399,425.93 103.405,427.08 106.335,433.76C108.306,438.25 105.21,437.79 98.144,432.54C93.22,428.88 87.515,431.37 91.347,435.51C94.997,439.46 89.879,439.84 84.496,436.01C80.26,433 73.578,434.67 76.63,437.97C77.847,439.29 77.854,440.95 76.656,441.67C75.448,442.39 73.555,442 72.455,440.8C69.691,437.81 63.64,438.83 63.701,442.27C63.739,444.3 62.707,444.61 59.965,443.37C57.038,442.05 55.852,442.46 54.76,445.17C53.677,447.87 52.544,448.33 49.935,447.15C45.272,445.04 41.447,447.69 44.418,450.97C45.818,452.52 45.548,453.38 43.778,453.03C42.098,452.7 37.755,454.18 34.12,456.32C30.484,458.45 21.405,463.11 13.952,466.66C5.149,470.86 0.892,473.68 1.824,474.69C3.376,476.37 9.064,475.13 27.081,469.21C33.42,467.13 42.282,465.63 46.787,465.88C51.292,466.14 56.955,465.16 59.38,463.71C62.405,461.91 64.052,462.03 64.623,464.1C65.623,467.69 69.372,465.79 73.793,459.47C76.756,455.23 76.868,455.43 75.382,462.36L73.787,469.82L78.477,465.71C81.065,463.45 85.215,459.67 87.717,457.32L92.259,453.05L89.636,459.34C86.179,467.63 90.929,467.64 98.446,459.36C105.166,451.97 109.688,450.63 105.073,457.4C103.424,459.83 102.988,462.81 104.109,464.03C106.819,466.96 108.094,466 113.392,457.04C115.85,452.89 118.522,450.2 119.324,451.07C120.126,451.94 119.487,454.56 117.902,456.88C116.308,459.21 115.617,461.77 116.364,462.57C118.136,464.5 126.221,459.6 126.168,456.63C126.144,455.36 127.195,453.67 128.519,452.88C129.843,452.09 130.419,453.75 129.804,456.57C128.401,463.03 133.179,462.66 139.201,455.83C144.707,449.58 148.065,449.2 143.911,455.3C140.097,460.9 142.273,463.42 147.975,460.01C150.565,458.47 153.281,458.4 154.636,459.86C156.494,461.88 158.414,461.19 165.128,456.12C172.82,450.32 173.185,450.24 170.797,454.9C166.767,462.79 170.281,463.89 178.639,457.34C184.147,453.02 185.409,452.52 183.604,455.36C179.471,461.83 183.614,462.74 191.364,457.07L198.604,451.77L196.157,457.65L193.71,463.54L202.184,457.08C211.712,449.84 214.301,449.83 207.924,457.07C201.517,464.34 208.303,464.61 217.396,457.45C226.047,450.62 228.516,450.78 222.364,457.77C220.085,460.36 218.859,463.17 219.648,464.02C221.495,466.02 229.332,461.33 232.905,456.07C236.203,451.23 238.928,453.03 236.701,458.58C235.068,462.64 236.5,465.76 239.231,464.07C240.119,463.52 242.441,460.81 244.391,458.06L244.391,458.06Z" style="fill:rgb(132,189,76);fill-rule:nonzero;"/>
        <path d="M542.521,260.42C541.139,255.4 525.525,251.39 500.005,249.51C495.627,249.19 494.22,248.22 494.859,245.97C495.497,243.71 493.999,243.9 489.379,246.66C484.412,249.63 483.247,249.71 483.991,247.04C484.746,244.38 483.497,243.87 478.254,244.69C474.569,245.28 472.762,245 474.238,244.07C475.724,243.14 476.3,241.7 475.532,240.87C474.764,240.04 470.421,241.54 465.886,244.21C458.548,248.53 457.852,248.59 459.61,244.78C462.555,238.36 460.666,238.03 451.718,243.38C444.199,247.86 443.8,247.87 445.906,243.52C448.084,239.02 447.919,238.94 441.329,241.34C437.569,242.72 433.867,244.91 433.093,246.21C432.319,247.52 431.093,247.94 430.368,247.15C429.631,246.35 430.196,244.38 431.622,242.76C436.451,237.25 428.38,238.1 421.007,243.88C414.744,248.8 414.261,248.92 417.193,244.84C422.475,237.49 419.043,237.11 407.743,243.81L397.313,249.99L400.094,243.83C402.389,238.76 402.127,237.88 398.602,238.82C396.249,239.45 392.218,242.35 389.658,245.26C383.898,251.79 380.732,252.03 384.47,245.64C385.989,243.05 386.755,240.41 386.168,239.77C384.567,238.04 376.49,243.42 372.883,248.62C369.803,253.06 369.731,253.04 370.773,247.93C371.365,245.04 371.43,242.21 370.917,241.65C369.124,239.71 359.987,246.63 357.231,252.01C353.451,259.39 349.766,258.62 351.643,250.84C352.48,247.36 352.737,244.05 352.213,243.48C350.207,241.31 342.974,247.6 340.211,253.9C337.238,260.7 333.491,260.58 336.233,253.76C337.08,251.65 337.224,249.32 336.553,248.6C334.203,246.05 329.076,251.06 325.974,258.93C323.754,264.58 322.27,266.23 320.808,264.65C319.687,263.43 319.458,260.7 320.305,258.59C322.157,254 319.071,249.95 315.389,252.15C313.949,253.01 311.601,257.32 310.157,261.72C307.468,269.98 305.97,269.32 303.412,258.72C302.173,253.59 298.74,256.45 295.925,264.95C292.89,274.13 291.895,274.72 290.639,268.1C288.961,259.21 284.342,261.98 282.126,273.2L280.026,283.83L275.618,276.5C270.258,267.58 266.926,268.73 266.277,279.73C266.03,284.08 265.359,289.37 264.793,291.51C263.721,295.59 270.562,301.09 277.929,302.07C284.157,302.89 286.58,300.38 281.919,297.94C274.914,294.27 279.623,294.07 288.242,297.67C298.922,302.12 302.466,299.79 294.262,293.71C289.652,290.3 288.848,288.85 291.39,288.54C293.326,288.3 296.324,289.63 298.042,291.49C301.212,294.92 308.183,296.31 311.701,294.21C312.764,293.58 310.899,291.26 307.561,289.06C300.249,284.23 304.743,283.96 314.008,288.67C323.292,293.38 329.711,291.13 322.582,285.66C319.63,283.39 318.024,281.05 319.019,280.46C320.014,279.86 322.021,280.66 323.462,282.23C324.914,283.8 329.612,285.48 333.89,285.96L341.682,286.85L335.678,281.64C327.99,274.98 330.265,273.52 339.553,279.15C349.027,284.88 354.784,283.12 348.847,276.31C344.527,271.34 344.667,271.34 353.118,276.32C364.51,283.05 370.208,281.48 363.364,273.5C360.563,270.23 359.942,268.67 361.991,270.03C364.031,271.38 367.588,273.74 369.896,275.26C375.576,279.02 378.368,276.84 376.382,270.22L374.734,264.75L379.834,269.91C385.904,276.07 393.734,278.84 392.097,274.24C391.536,272.68 390.625,270.09 390.081,268.48C389.527,266.87 390.834,267.33 392.98,269.49C401.128,277.7 408.542,278.1 405.87,270.18C404.482,266.09 404.72,266.06 409.448,269.8C418.673,277.09 421.348,277.36 419.91,270.87L418.593,264.91L425.806,270.28C434.472,276.74 437.5,275.66 434.445,267.17L432.189,260.9L436.349,265.02C438.632,267.29 442.934,269.91 445.919,270.85C451.197,272.52 451.3,272.41 450.073,266.45L448.817,260.35L453.214,264.75C455.635,267.18 459.457,269.61 461.72,270.17C465.057,270.99 465.555,270.26 464.37,266.24C462.924,261.32 462.944,261.32 469.024,265.27C475.677,269.61 479.666,268.9 477.388,263.79C476.272,261.29 476.701,261.27 479.263,263.71C483.7,267.94 488.351,267.11 488.081,262.14C487.892,258.55 488.239,258.5 491.221,261.63C493.438,263.96 495.337,264.29 496.809,262.62C500.916,257.93 521.439,256.45 532.599,260.04C540.284,262.52 543.129,262.62 542.521,260.42L542.521,260.42ZM242.242,405.75C245.316,401.52 242.886,380.43 239.285,380.23C238.181,380.17 236.449,382.53 235.421,385.48C233.376,391.4 231.304,390.35 229.031,382.24C226.886,374.6 221.932,374.18 220.891,381.55L220.037,387.65L215.514,380.39C211.973,374.71 210.304,373.54 207.85,375.01C206.12,376.04 205.027,379.07 205.413,381.74C206.01,385.81 205.378,385.43 201.476,379.4C196.268,371.36 192.689,371.73 191.956,380.41L191.479,385.96L189.322,381.39C188.136,378.88 186.54,375.35 185.785,373.54C183.705,368.58 180.193,371.96 179.385,379.71L178.665,386.59L174.103,379.35C169.002,371.26 165.311,371.59 164.843,380.19C164.553,385.52 164.412,385.5 158.5,379.29C154.101,374.68 151.551,373.48 149.164,374.9C147.357,375.98 146.91,378.1 148.158,379.61C149.428,381.13 147.324,380.9 143.428,379.09C133.827,374.61 130.457,374.78 132.609,379.62C135.567,386.28 130.989,386.49 124.97,379.98C118.513,372.99 114.357,374.09 116.147,382.33L117.379,388.03L111.386,382.83C104.656,376.98 100.546,377.84 102.297,384.74C103.414,389.14 103.305,389.16 99.477,385.25C94.957,380.63 91.233,381.75 91.547,387.64C91.729,390.94 90.97,390.78 87.155,386.75C82.605,381.94 77.865,381.95 79.265,386.77C79.677,388.17 77.18,388.04 73.629,386.49C70.13,384.96 66.702,384.65 66.009,385.81C65.327,386.97 62.629,387.33 60.006,386.61C56.104,385.53 55.244,385.88 55.191,388.58C55.142,391.17 54.203,391.36 50.676,389.52C48.221,388.23 45.176,388.32 43.476,388.82C32.119,392.14 11.746,395.71 2.671,395.59C1.045,395.57 1.818,398.83 4.231,398.76C11.075,398.59 42.723,403.54 43.277,405.14C44.264,408.01 42.607,408.08 47.351,407.27C50.579,406.72 53.481,405.89 53.793,405.43C54.097,404.97 53.758,406.2 53.023,408.16C51.199,413.07 56.328,413.91 63.613,409.88C67.42,407.78 68.483,407.64 66.472,409.52C60.791,414.82 65.626,415.43 74.168,410.49C81.762,406.1 82.181,406.08 79.066,410.27C74.011,417.05 76.949,418.05 86.023,412.63C93.85,407.95 93.991,407.96 92.865,413.18C91.887,417.68 92.326,418.35 95.694,417.45C97.89,416.86 101.67,414.12 104.108,411.35C109.174,405.61 111.195,406.15 108.284,412.48C106.544,416.26 107.504,416.08 116.247,410.98C124.091,406.41 125.677,405.99 123.773,409.02C122.455,411.12 122.038,413.57 122.86,414.46C124.311,416.03 129.43,412.42 136.22,405.02C138.57,402.47 138.66,403.5 136.516,408.39C132.826,416.81 137.986,417.31 146.181,409.33C151.319,404.33 151.489,404.33 150.441,409.16C149.116,415.25 154.42,415.32 158.547,409.26C163.328,402.25 166.802,401.46 165.545,407.68L164.379,413.42L170.921,407.96L177.473,402.5L176.267,408.23L175.06,413.95L182.677,408.4C191.013,402.33 194.058,402.77 189.544,409.39C184.468,416.84 189.034,417.45 198.262,410.56C206.437,404.46 206.694,404.41 204.027,409.44C199.64,417.72 203.074,418.48 212.577,411.34C219.858,405.86 220.8,405.54 219.071,409.17C217.947,411.5 217.828,414.26 218.789,415.3C220.507,417.16 223.196,415.26 230.093,407.31C232.726,404.28 232.888,404.82 230.89,410.01L228.389,416.5L233.815,413.18C236.798,411.35 240.594,408.01 242.242,405.75L242.242,405.75Z" style="fill:rgb(132,189,76);fill-rule:nonzero;"/>
        <path d="M536.44,192.8C534.774,190.98 522.633,192.69 510.879,196.38C499.183,200.06 494.193,200.4 491.695,197.69C490.777,196.69 487.585,196.99 484.613,198.35C481.633,199.72 479.181,199.86 479.163,198.68C479.143,197.49 477.203,197.67 474.855,199.07C472.208,200.66 469.824,200.59 468.555,198.9C467.341,197.28 463.888,197.06 460.034,198.36C456.474,199.56 454.724,199.74 456.157,198.76C461.859,194.84 455.483,194.22 448.685,198.03C444.665,200.28 442.882,200.73 444.704,199.04C450.11,194.01 443.491,193.17 436.15,197.95C430.003,201.94 429.553,201.95 431.452,197.99C433.449,193.82 433.321,193.67 428.732,194.89C426.072,195.59 421.76,197.95 419.127,200.13C413.947,204.43 410.698,203.58 414.73,198.98C416.1,197.43 416.564,195.45 415.774,194.59C413.917,192.58 406.09,197.26 402.497,202.53C399.08,207.55 397.37,206.18 398.804,199.57C399.814,194.93 399.587,194.81 395.016,197.54C392.339,199.14 388.903,202.29 387.364,204.54C383.891,209.64 382.266,208.17 383.671,201.23C384.729,196.05 384.591,196.08 375.977,202.53C369.49,207.39 367.432,208.28 368.087,205.95C369.686,200.28 366.513,199.89 360.432,205.02C355.581,209.11 354.567,209.4 355.032,206.56C355.928,201 351.613,202.29 345.792,209.31C340.672,215.49 340.428,215.59 340.373,211.39C340.3,204.99 336.547,205.79 331.247,213.34C326.648,219.88 326.599,219.9 326.125,215.2C325.493,208.98 322.445,209.02 317.542,215.32C312.268,222.1 310.932,222.7 311.706,217.96C312.706,211.78 307.71,213.04 303.201,220.1C299.581,225.77 294.651,227.13 297.955,221.54C299.985,218.11 297.075,216.21 293.267,218.48C291.411,219.59 288.974,223.75 287.855,227.72C285.545,235.94 282.648,237.03 281.935,229.94C281.661,227.3 280.431,225.08 279.187,225.01C275.817,224.82 272.76,231.24 271.225,241.78C270.024,250 270.599,251.46 275.856,253.47C283.026,256.21 288.596,253.82 282.92,250.45C276.094,246.4 282.257,245.77 290.028,249.72C298.396,253.99 303.029,252.84 298.426,247.64C295.9,244.79 296.857,244.74 303.858,247.32L312.36,250.44L309.35,245.8C305.338,239.61 308.31,238.26 316.208,242.69C324.312,247.23 332.448,245.6 324.817,240.96C321.8,239.13 320.614,237.31 321.928,236.52C323.156,235.79 325.288,236.36 326.672,237.79C329.407,240.62 338.884,242.8 341.542,241.21C342.46,240.67 341.162,238.81 338.66,237.07C336.17,235.34 334.977,233.41 336.01,232.79C337.055,232.18 338.77,232.61 339.838,233.77C340.905,234.92 345.302,236.25 349.61,236.72L357.45,237.57L351.715,233.38C344.331,227.99 347.33,226.09 355.881,230.74C363.833,235.06 370.334,233.71 365.801,228.67C363.224,225.81 364.504,225.81 372.331,228.68C381.988,232.22 382.027,232.21 378.123,227.68C373.223,222.02 378.888,221.93 385.666,227.56C392.087,232.9 398.262,230.92 393.353,225.11C389.723,220.82 389.803,220.81 396.02,224.71C403.742,229.56 410.584,230.45 409.13,226.43C408.592,224.92 407.694,222.38 407.15,220.77C406.597,219.17 407.903,219.62 410.049,221.78C417.858,229.65 428.664,230.61 421.437,222.78C416.367,217.3 421.129,215.77 427.17,220.94C433.275,226.17 439.423,225.1 436.237,219.35C434.092,215.49 434.171,215.47 437.846,218.98C439.974,221.01 444.387,223.12 447.64,223.68C453.286,224.64 453.376,224.47 449.616,220.02L445.664,215.34L453.182,218.91C462.192,223.19 468.165,222.06 464.023,216.88C461.176,213.32 461.213,213.28 465.027,215.91C467.215,217.42 471.164,218.61 473.812,218.57C477.718,218.5 478.155,217.94 476.099,215.61C473.959,213.19 474.549,213.04 479.832,214.63C483.985,215.88 485.802,215.64 485.212,213.93C484.621,212.2 485.801,211.17 488.73,210.81C491.163,210.52 494.242,209.83 495.59,209.26C496.937,208.7 501.349,206.85 505.4,205.16C509.442,203.47 518.325,200.26 525.145,198.04C531.965,195.81 537.048,193.45 536.44,192.8L536.44,192.8ZM245.402,360.45C246.504,359.12 246.44,356.99 245.276,355.72C244.103,354.46 243.748,349.93 244.48,345.67C245.201,341.4 244.282,336.26 242.415,334.25C238.241,329.73 237.447,330.17 235.366,338.05C233.868,343.75 233.63,343.95 232.665,340.26C230.958,333.79 226.137,326.57 224.262,327.69C223.325,328.26 221.808,330.87 220.9,333.49C219.334,338.01 219.018,337.92 215.008,331.74L210.768,325.21L209.508,331.56C208.082,338.83 204.493,339.88 203.825,333.23C202.828,323.5 194.658,322.13 193.413,331.47C192.89,335.37 192.121,334.88 187.273,327.52L181.723,319.11L179.115,326.54C176.832,333 176.357,333.44 175.432,329.91C172.182,317.56 165.896,315.06 165.276,325.87C164.896,332.72 161.464,332.52 159.506,325.53C156.668,315.43 153.293,314.32 151.585,322.93L150.022,330.77L145.828,323.68C140.982,315.51 135.079,314.77 133.982,322.2C133.314,326.69 133.145,326.71 130.929,322.49C129.635,320.02 126.883,317.58 124.812,317.05C120.325,315.9 117.221,320.12 120.189,323.34C121.341,324.58 120.91,325.77 119.223,325.98C117.534,326.18 115.273,324.43 114.185,322.07C111.62,316.5 105.347,317.3 104.725,323.27C104.282,327.51 103.786,327.42 98.937,322.28C92.937,315.92 89.621,316.52 90.534,323.78C91.086,328.27 90.874,328.22 87.97,323.19C84.122,316.54 77.58,316.51 77.028,323.15C76.68,327.31 76.268,327.29 72.192,322.88C67.699,318.02 60.836,319 62.175,324.31C62.527,325.71 61.36,325.42 59.587,323.65C55.628,319.73 49.543,320.16 49.628,324.36C49.666,326.56 48.205,326.53 44.431,324.24C38.563,320.67 34.045,321.91 37.581,326.12C39.375,328.26 38.675,328.42 34.252,326.83C31.147,325.71 27.66,325.93 26.441,327.32C25.231,328.7 23.66,329.19 22.934,328.41C22.219,327.64 20.516,328.27 19.147,329.83C17.787,331.39 15.936,331.87 15.039,330.9C14.142,329.93 12.862,330.08 12.179,331.23C11.505,332.37 9.691,332.99 8.149,332.6C4.707,331.72 -1.416,335.15 0.296,337.01C0.984,337.75 6.296,338.75 12.116,339.24C17.924,339.73 22.486,340.81 22.256,341.64C22.023,342.46 24.285,341.8 27.279,340.16C31.107,338.06 31.777,338.06 29.539,340.15C24.351,345 28.394,346.25 35.507,342.01C42.957,337.55 46.447,339.09 41.152,344.5C35.66,350.12 42.347,350.08 49.129,344.45C54.06,340.35 54.759,340.16 52.858,343.4C49.784,348.65 54.198,349.57 61.625,345.23C66.759,342.22 67.232,342.27 65.118,345.63C61.255,351.76 67.554,351.56 75.468,345.3C82.466,339.76 82.556,339.76 79.944,345.05C75.946,353.15 79.042,354.1 88.253,347.6C97.367,341.16 100.923,341.44 93.738,348.03C85.365,355.71 91.504,356.2 101.463,348.64L110.667,341.67L108.174,347.63C104.884,355.5 108.778,355.42 117.114,347.44L123.839,341.01L122.333,347.26C120.52,354.76 123.654,355.52 129.423,348.98C134.788,342.88 137.667,343.04 136.295,349.36C134.624,357.05 136.765,357.24 145.907,350.24C154.082,343.99 154.28,343.95 151.682,349.13C147.542,357.36 150.786,358.3 159.809,351.49C168.344,345.05 172.724,345.22 165.973,351.73C162.215,355.36 162.308,355.58 167.386,354.87C170.393,354.46 173.912,352.9 175.224,351.4C176.537,349.91 178.172,349.3 178.865,350.05C179.549,350.79 178.549,353.02 176.623,354.98C170.81,360.94 175.003,361.5 185.351,356.15L195.127,351.1L190.415,356.91C186.871,361.29 186.736,362.59 189.904,362.2C192.217,361.92 195.098,360.55 196.316,359.16C197.534,357.77 200.696,356.06 203.326,355.37C207.433,354.29 207.541,354.94 204.074,359.97C198.506,368.07 203.868,368.63 213.974,361L222.278,354.73L217.162,361.32C210.392,370.05 215.542,371.09 226.138,363.13C234.244,357.05 234.313,357.04 228.617,362.77C225.387,366.02 223.923,369.23 225.325,369.95C227.975,371.3 241.9,364.71 245.402,360.45L245.402,360.45ZM247.29,311.01C247.537,309.25 247.013,305.92 246.139,303.61C245.265,301.3 245.996,297.91 247.78,296.09C251.121,292.67 250.786,286.4 247.254,286.2C246.16,286.14 243.439,289.03 241.218,292.62C236.446,300.31 235.031,299.71 236.215,290.5C237.245,282.45 232.065,282.96 228.996,291.22L226.932,296.8L226.666,288.47C226.224,274.7 220.104,273.51 215.914,286.38L213.776,292.93L212.442,284.97C210.782,275.01 206.963,274.52 203.777,283.86C201.624,290.15 201.215,290.51 200.306,286.92C198.478,279.75 193.739,273.25 191.372,274.67C190.116,275.42 188.511,278.08 187.807,280.59C185.969,287.14 182.955,286.04 180.48,277.9C177.797,269.09 173.132,268.5 172.108,276.84L171.334,283.12L169.454,275.58C167.251,266.76 162.124,265.96 159.344,274.01C157.597,279.05 157.407,279.04 152.444,273.67C146.776,267.54 144.824,267.68 143.959,274.28C143.439,278.21 142.925,277.98 139.53,272.24C135.315,265.12 133.142,265.23 130.556,272.68C128.947,277.34 128.616,277.3 123.546,271.82C118.316,266.16 118.196,266.16 116.382,271.42C114.568,276.66 114.438,276.67 110.126,272C105.132,266.61 103.121,266.94 102.451,273.29C102.024,277.28 101.646,277.31 98.162,273.65C93.762,269.02 87.52,268.98 87.608,273.58C87.642,275.88 86.016,275.94 81.363,273.83C76.134,271.45 74.813,271.61 73.548,274.77C72.307,277.84 71.613,278.13 69.917,276.3C68.775,275.06 65.747,274.07 63.199,274.11C59.593,274.17 58.77,274.99 59.475,277.81C60.295,281.06 59.872,281.2 55.344,279.16C49.964,276.75 44.645,278.33 47.491,281.51C48.634,282.77 47.801,283.07 45.031,282.39C42.739,281.83 39.763,281.89 38.42,282.53C37.077,283.17 35.609,283.71 35.15,283.72C34.7,283.73 32.618,284.39 30.544,285.17C28.47,285.96 22.807,287.62 17.96,288.88C13.113,290.13 8.92,291.97 8.638,292.96C8.001,295.24 36.659,296.76 40.286,294.64C41.949,293.67 42.231,294.38 41.025,296.51C39.538,299.14 40.622,299.04 45.709,296.06C50.34,293.34 51.777,293.11 50.514,295.3C48.426,298.93 53.397,300.84 57.92,298.14C59.891,296.96 61.333,297.5 61.926,299.62C62.726,302.52 63.969,302.08 71.586,296.18C80.282,289.43 80.312,289.43 77.813,295.11C74.608,302.39 77.847,302.56 87.233,295.62C93.896,290.7 94.303,290.63 91.34,294.88C86.33,302.09 89.438,302.74 99.773,296.65C107.188,292.27 108.617,291.92 106.704,294.96C102.624,301.46 106.736,302.37 114.495,296.69C121.63,291.46 121.691,291.47 119.221,296.79C116.139,303.44 121.659,303.44 128.901,296.8C133.619,292.47 133.761,292.49 132.688,297.43C131.009,305.16 133.053,305.58 141.19,299.18L148.572,293.38L145.859,299.32C143.18,305.18 143.224,305.24 148.615,303.54C151.629,302.59 156.514,299.75 159.476,297.22L164.857,292.61L160.784,299.24L156.72,305.87L167.314,300.79C176.147,296.55 177.278,296.4 174.099,299.85C168.372,306.07 171.626,307.17 181.484,302.33C189.067,298.61 189.736,298.59 186.414,302.15C181.002,307.95 183.446,309.22 192.951,305.54L201.078,302.39L196.172,307.61C190.399,313.73 195.822,314.12 205.682,308.29C208.997,306.32 212.342,305.39 213.111,306.22C213.88,307.05 212.538,308.91 210.131,310.35C200.42,316.15 211.376,316.43 221.728,310.64C225.951,308.28 225.978,308.59 221.958,313.04C215.167,320.56 218.582,321.69 229.299,315.46C237.686,310.6 238.33,310.5 235.289,314.59C233.416,317.11 232.409,319.75 233.06,320.45C234.917,322.46 246.797,314.57 247.29,311.01L247.29,311.01ZM492.362,156.13C490.612,154.24 468.678,155.88 464.812,158.19C463.372,159.05 460.306,158.77 458.006,157.57C455.706,156.36 452.408,156.22 450.688,157.25C448.958,158.28 447.073,158.19 446.476,157.04C445.889,155.9 442.481,155.93 438.9,157.12C435.319,158.3 433.559,158.47 434.991,157.48C440.174,153.92 434.647,152.77 428.887,156.21C424.287,158.96 423.189,158.99 423.926,156.36C425.492,150.8 423.044,150.32 415.661,154.73C409.051,158.68 408.789,158.65 410.877,154.15C412.928,149.71 412.499,149.73 404.378,154.51C397.62,158.49 395.903,158.88 396.639,156.25C398.297,150.37 395.219,149.9 389.052,155.1C384.057,159.3 383.181,159.53 383.682,156.47C384.446,151.73 379.174,152.21 374.172,157.33C371.068,160.51 370.295,160.46 369.045,157.03C367.39,152.49 364.233,153.57 359.692,160.24C357.104,164.04 356.595,164.07 355.298,160.52C353.5,155.57 349.125,157.72 345.13,165.53C342.392,170.87 342.293,170.9 341.837,166.33C341.441,162.45 340.743,161.98 337.912,163.67C336.028,164.8 332.904,168.51 330.982,171.92L327.474,178.11L327.517,171.64C327.563,165.91 327.163,165.41 324.081,167.25C322.177,168.39 319.368,171.15 317.847,173.37C315.627,176.64 314.928,176.82 314.244,174.35C313.041,170 308.845,173.16 306.964,179.82C305.207,186.06 304.021,185.95 303.363,179.47C302.769,173.57 297.706,176.78 293.903,185.48L291.009,192.1L289.981,186.65C288.438,178.53 284.472,179.8 281.441,189.38C278.054,200.07 279.699,206.69 286.261,208.76C292.444,210.71 296.255,208.68 293.01,205.15C291.397,203.39 293.55,203.28 299.45,204.82C310.285,207.65 312.736,206.63 306.138,202.04C301.501,198.82 301.552,198.67 306.94,199.67C310.114,200.25 313.214,201.28 313.833,201.95C314.453,202.63 316.347,202.35 318.038,201.34C320.058,200.13 319.703,198.52 317.025,196.67C313.18,194.01 313.227,193.95 317.779,195.71C320.449,196.74 325.296,197.54 328.553,197.48C334.047,197.38 334.08,197.09 329.077,193.61C324.084,190.13 324.113,189.93 329.44,190.92C332.604,191.5 335.704,192.53 336.323,193.2C336.953,193.87 338.44,193.84 339.649,193.12C340.847,192.4 340.86,190.75 339.665,189.46C338.171,187.84 340.396,187.42 346.807,188.12L356.136,189.13L352.096,184.5L348.066,179.88L355.696,182.94C364.399,186.43 370.607,184.52 363.809,180.44C361.147,178.85 362.678,178.87 367.642,180.49C376.726,183.47 380.643,182.56 377.282,178.25C376.082,176.71 377.552,177.06 380.547,179.03C387.337,183.49 393.84,182 389.547,176.98C386.875,173.84 387.402,173.79 393.467,176.62C402.903,181.01 406.519,180.94 402.556,176.43C399.889,173.39 400.929,173.4 408.331,176.52C415.906,179.7 417.176,179.7 416.171,176.52C415.187,173.37 416.029,173.4 421.101,176.69C427.596,180.9 432.761,180.11 429.001,175.48C427.761,173.96 429.82,174.44 433.561,176.53C439.743,179.99 440.411,179.94 440.741,176.01C441.076,171.97 441.419,171.85 445.646,174.37C449.271,176.52 450.49,176.34 451.635,173.5C452.421,171.54 454.181,170 455.535,170.07C456.89,170.15 459.319,169.62 460.937,168.9C464.923,167.12 485.093,160.09 489.938,158.8C492.094,158.22 493.184,157.02 492.362,156.13L492.362,156.13Z" style="fill:rgb(132,189,76);fill-rule:nonzero;"/>
        <path d="M251.086,263.42C252.54,260.57 252.913,257.37 251.931,256.3C250.939,255.23 250.968,251.95 251.986,249.01C253.671,244.12 251.73,238.61 248.908,240.3C248.261,240.68 246.318,243.54 244.589,246.66C240.789,253.51 239.185,252.42 240.309,243.73C241.593,233.68 234.447,229.47 232.853,239.34C231.713,246.38 228.469,245.63 227.217,238.04C225.776,229.27 221.929,228.13 219.31,235.69C218.282,238.65 216.76,240.32 215.917,239.41C215.084,238.5 214.991,236.74 215.719,235.51C216.447,234.28 215.512,231.61 213.634,229.58C209.642,225.26 203.728,227.77 204.177,233.59C204.637,239.6 200.223,237.98 199.027,231.7C197.665,224.45 193.822,224.41 191.183,231.62C189.113,237.28 189.073,237.3 188.011,233.31C185.863,225.28 184.202,222.69 182.037,223.98C180.82,224.71 180.242,226.81 180.75,228.66C181.397,231.01 180.552,231.95 177.903,231.8C175.264,231.65 173.877,229.47 173.279,224.52C172.155,215.2 166.139,214.58 163.783,223.56C162.851,227.13 161.644,228.73 161.11,227.11C157.558,216.45 156.877,215.57 153.63,217.51C151.813,218.59 150.346,220.53 150.37,221.8C150.46,226.26 146.152,226.81 145.705,222.4C145.468,220.05 144.294,217.06 143.088,215.76C140.302,212.74 133.927,216.42 135.03,220.42C136.614,226.16 132.22,225.58 128.59,219.58C124.607,212.99 121.834,213.12 121.112,219.95C120.697,223.81 119.933,223.57 114.636,217.95C108.09,210.99 106.086,210.92 105.367,217.63C104.963,221.5 104.252,221.32 99.204,216.04L93.496,210.07L92.706,216.4C91.936,222.57 91.84,222.65 88.846,219.49C84.786,215.21 79.173,212.76 76.738,214.22C75.666,214.86 75.726,216.41 76.878,217.65C79.942,220.97 75.758,222.61 71.168,219.89C66.943,217.39 61.34,219.23 64.105,222.22C65.022,223.2 63.093,223.57 59.811,223.02C55.176,222.25 53.853,222.71 53.793,225.11C53.746,227.56 52.694,228.05 48.613,227.51C45.791,227.14 43.469,227.79 43.447,228.95C43.417,230.16 37.018,233.6 28.475,236.98C20.275,240.23 11.295,244.17 8.535,245.74C0.337,250.4 5.448,251.78 15.343,247.58C20.379,245.45 25.963,243.64 27.769,243.56C29.564,243.49 33.226,242.48 35.899,241.33C38.572,240.18 43.621,239.49 47.129,239.81C50.979,240.15 54.6,239.13 56.269,237.22C58.585,234.58 58.923,234.71 58.386,238.02C57.843,241.4 58.645,241.44 63.931,238.28C68.733,235.41 69.899,235.34 69.153,237.97C67.489,243.91 70.602,244.3 77.052,238.98C81.956,234.94 82.79,234.66 80.898,237.71C77.542,243.1 82.318,243.71 90.348,238.91C95.711,235.71 96.935,235.6 96.488,238.39C95.765,242.82 99.076,243 106.458,238.93C110.276,236.83 111.182,236.75 109.086,238.71C102.57,244.79 111.106,245.07 121.64,239.13C126.471,236.4 126.471,236.4 123.031,241.03C118.357,247.3 122.391,248.76 132.521,244.47C137.85,242.21 139.151,242.07 136.128,244.07C126.654,250.35 136.643,251.01 147.292,244.82C152.04,242.05 152.062,242.07 149.814,246.92C147.879,251.11 148.204,251.73 152.148,251.27C154.671,250.98 159.234,249.31 162.281,247.55L167.825,244.36L164.601,249.26C160.715,255.16 164.121,255.78 172.586,250.73C175.998,248.69 179.41,247.7 180.178,248.53C180.946,249.36 179.054,251.55 175.971,253.39C172.802,255.29 171.564,257.04 173.118,257.44C174.63,257.83 178.217,256.74 181.088,255.03C188.083,250.85 192.182,252.19 187.132,257.01C183.75,260.23 183.852,260.79 187.739,260.39C190.304,260.13 195.412,258.21 199.101,256.13L205.791,252.34L200.218,258.48C193.65,265.72 196.887,266.69 207.148,260.55C211.16,258.16 215.074,256.87 215.843,257.7C216.612,258.54 214.777,260.69 211.761,262.48C204.408,266.88 207.324,269.39 215.899,266.04C226.273,261.99 228.454,261.5 224.359,264.16C218.191,268.14 222.772,269.69 231.775,266.66C238.013,264.57 238.985,264.61 235.525,266.83C230.696,269.94 229.207,274.42 233.211,273.8C240.813,272.63 248.715,268.03 251.086,263.42L251.086,263.42ZM445.512,109.12C444.178,107.67 419.562,112.55 415.272,115.11C413.503,116.17 411.062,115.97 409.856,114.67C408.308,112.99 406.658,113.34 404.176,115.88C402.044,118.07 400.054,118.76 399.051,117.68C397.995,116.54 395.766,117.41 392.861,120.07C389.291,123.34 388.126,123.59 387.467,121.2C386.464,117.55 384.742,118.38 380.521,124.53C377.581,128.83 377.421,128.83 378.116,124.45C378.81,120.06 378.451,120.07 372.622,124.56C368.039,128.1 366.192,128.67 365.659,126.73C364.761,123.5 360.875,125.63 356.579,131.71C353.928,135.46 353.518,135.63 354.253,132.63C355.731,126.6 352.883,125.94 346.963,130.92C343.417,133.91 340.391,135.18 338.715,134.39C336.689,133.43 335.331,134.31 332.965,138.15C330.25,142.53 329.754,142.77 328.993,140.01C327.637,135.11 322.118,137.01 319.943,143.11C318.029,148.52 317.97,148.54 316.393,144.3C314.771,139.97 310.329,140.45 310.41,144.94C310.49,149.24 306.757,149.51 304.904,145.34C303.108,141.3 302.99,141.34 299.787,147.12C296.647,152.79 296.453,152.88 294.901,149.41C292.679,144.41 288.614,147.4 286.261,155.75C284.098,163.43 290.014,172.62 294.111,167.94C295.565,166.29 298.121,166.05 300.586,167.34C305.651,170 309.543,167.98 306.449,164.3C304.622,162.13 305.273,161.98 309.665,163.55C315.66,165.7 319.909,164.48 317.219,161.39C316.287,160.32 317.62,160.04 320.213,160.77C322.785,161.49 325.827,161.52 326.967,160.84C328.117,160.15 328.013,158.37 326.746,156.87C324.909,154.69 325.432,154.57 329.339,156.25C335.751,159.02 341.407,158.26 338.429,155.04C336.582,153.03 337.664,152.72 343.729,153.49C349.713,154.26 351.376,153.79 351.431,151.3C351.479,148.87 352.449,148.7 355.598,150.57C360.57,153.52 365.396,151.22 362.194,147.41C360.334,145.19 360.916,145.04 365.277,146.6C372.181,149.07 378.932,147.38 375.774,143.97C373.97,142.02 375.094,141.76 380.58,142.87L387.734,144.32L385.814,139.68L383.893,135.03L388.587,137.5C394.107,140.42 400.341,137.57 397.021,133.63C395.26,131.55 395.913,131.43 399.841,133.12C405.843,135.72 410.519,133.77 407.114,130.08C405.054,127.86 405.513,127.66 410.714,128.53C415.864,129.39 416.674,129.04 416.763,125.94C416.818,123.97 417.535,123.06 418.344,123.91C419.174,124.77 425.719,122.1 433.192,117.86C440.548,113.68 446.089,109.75 445.512,109.12L445.512,109.12Z" style="fill:rgb(132,189,76);fill-rule:nonzero;"/>
        <path d="M258.448,221.08C259.091,219.75 259.431,216.66 259.218,214.21C258.995,211.76 258.784,207.45 258.74,204.64C258.636,198.56 254.38,197.6 252.153,203.15C250.747,206.64 250.396,206.28 248.863,199.71C247.877,195.49 245.943,192.52 244.325,192.71C242.785,192.9 241.537,194.12 241.563,195.42C241.643,199.9 237.348,200.49 236.899,196.05C236.275,189.98 233.597,187.77 230.765,191C228.852,193.18 227.742,192.66 225.501,188.53C222.508,182.99 219.417,183.31 217.419,189.36C216.425,192.37 216.021,192.3 215.117,188.98C211.829,176.83 207.87,174.79 204.797,183.65C203.257,188.12 203.03,188 200.561,181.5C197.358,173.04 193.888,172.52 191.118,180.08C189.048,185.74 189.01,185.76 187.947,181.77C185.017,170.79 181.476,168.88 179.172,177.05C178.376,179.87 177.292,179.11 173.731,173.26C168.953,165.41 166.737,165.3 164.135,172.82C162.579,177.34 162.285,177.26 158.721,171.37C154.67,164.66 150.068,164.98 150.434,171.94C150.615,175.22 149.814,175.03 145.903,170.89C142.312,167.1 140.549,166.54 138.721,168.63C136.808,170.81 135.698,170.29 133.467,166.16C130.217,160.15 125.365,161.5 124.669,168.59C124.279,172.55 124.071,172.58 122.353,168.83C121.321,166.57 118.789,163.96 116.735,163.04C113.356,161.51 112.963,161.8 112.515,166.11C112.039,170.65 111.842,170.7 108.337,167.01C103.703,162.15 100.339,161.91 98.557,166.32C97.474,169.02 96.505,169.04 94.061,166.39C91.84,163.98 90.232,163.85 88.414,165.93C86.95,167.59 84.424,168.18 82.514,167.32C80.666,166.49 78.174,166.62 76.972,167.62C75.77,168.62 66.148,171.15 55.59,173.24C43.42,175.64 34.322,178.6 30.76,181.3C25.167,185.54 25.207,185.55 36.391,183.04C49.124,180.18 76.787,181.43 77.981,184.92C78.415,186.19 80.331,186.29 82.234,185.15C84.137,184.01 86.323,183.76 87.091,184.59C87.859,185.42 87.445,186.72 86.17,187.48C84.895,188.25 85.211,189.22 86.876,189.64C88.622,190.09 92.284,188.41 95.496,185.7C98.946,182.79 101.112,181.86 101.134,183.27C101.157,184.52 99.757,186.4 98.017,187.44C91.755,191.18 97.601,191.97 106.977,188.64C113.846,186.21 115.163,186.16 111.617,188.45C104.707,192.92 110.252,195.06 119.105,191.34C125.976,188.45 126.079,188.49 121.996,192.39C115.856,198.23 122.177,198.76 131.794,193.21C139.291,188.87 139.68,188.86 136.555,193.06C130.611,201.05 136.076,201.32 147.235,193.59C149.235,192.21 151.489,191.76 152.247,192.58C153.005,193.4 152.145,194.95 150.338,196.03C142.926,200.46 150.507,200.64 158.158,196.21C165.753,191.82 166.172,191.8 163.046,195.99C158.307,202.36 160.775,203.86 168.438,199.28C176.208,194.65 181.368,195.33 176.459,200.34C170.741,206.2 174.915,207.12 183.875,201.98L192.195,197.19L187.493,203.14C183.237,208.53 183.29,208.93 188.116,207.49C200.893,203.67 201.712,203.65 197.138,207.35C191.551,211.86 195.415,214.16 203.777,211.28C208.267,209.74 208.934,209.85 206.15,211.68C200.796,215.21 206.349,217.49 212.964,214.48C218.088,212.16 218.254,212.26 216.24,216.47C214.26,220.6 214.799,220.75 223.916,218.64C233.486,216.42 233.568,216.45 227.747,220.03C219.723,224.94 222.775,227.54 232.093,223.74C240.914,220.15 246.29,220.76 239.835,224.62C233.524,228.38 236.794,230.78 245.162,228.52C253.422,226.3 256.87,224.37 258.448,221.08L258.448,221.08ZM398.36,102.23C397.678,101.49 392.048,102.01 385.838,103.39C379.638,104.77 373.657,104.91 372.536,103.7C371.299,102.37 369.534,102.62 368.023,104.33C366.664,105.89 364.94,106.51 364.193,105.7C363.446,104.9 361.359,105.12 359.553,106.2C357.747,107.28 355.604,107.44 354.783,106.55C353.897,105.59 351.779,106.48 349.58,108.74C346.843,111.54 345.856,111.76 345.81,109.6C345.776,107.47 344.688,107.67 341.824,110.34C339.112,112.88 337.258,113.33 335.838,111.79C334.376,110.21 332.702,110.66 330.07,113.36C327.333,116.16 326.346,116.39 326.3,114.23C326.266,112.09 325.177,112.29 322.313,114.97C320.151,116.99 317.747,117.95 316.968,117.11C316.189,116.27 314.433,116.85 313.074,118.41C311.704,119.97 309.938,120.54 309.148,119.68C308.337,118.8 306.168,119.68 304.205,121.69C302.205,123.74 300.083,124.57 299.229,123.65C296.7,120.92 291.294,125.62 291.758,130.14C292.375,136.28 296.031,139.46 299.848,137.19C301.646,136.11 303.828,135.98 304.672,136.9C305.525,137.82 307.269,137.37 308.562,135.89C309.847,134.42 312.52,133.95 314.492,134.84C317.162,136.04 318.308,135.64 318.979,133.26C319.651,130.89 321.217,130.3 325.125,130.96C329.993,131.78 330.174,131.62 327.677,128.76C326.112,126.96 326.283,125.95 328.097,126.34C329.807,126.7 333.699,126.39 336.756,125.65C339.813,124.91 342.939,124.16 343.709,123.99C344.479,123.81 347.792,122.84 351.063,121.83C354.334,120.82 357.486,120.51 358.083,121.15C358.67,121.78 362.211,120.25 365.964,117.73C369.707,115.21 374.694,112.74 377.034,112.25C384.71,110.63 399.641,103.61 398.361,102.23L398.36,102.23ZM266.902,173.97C268.8,162.6 267.652,160.07 262.673,164.72C259.506,167.68 259.053,167.47 258.14,162.61C257.347,158.43 256.39,157.45 253.834,158.22C251.722,158.86 249.774,157.52 248.366,154.47C246.556,150.54 245.701,150.27 243.413,152.88C241.126,155.5 240.575,155.32 240.221,151.81C239.61,145.79 236.921,143.59 234.089,146.81C232.167,149.01 231.065,148.46 228.724,144.14C225.966,139.03 225.602,138.97 222.719,143.2C219.827,147.45 219.483,147.39 216.592,142.05C214.026,137.31 213.101,136.89 210.851,139.46C208.6,142.02 207.666,141.61 205.167,136.99C202.645,132.33 201.743,131.95 199.427,134.59C197.243,137.09 195.825,136.78 192.377,133.05C188.695,129.07 187.828,128.95 186.509,132.22C185.191,135.51 184.301,135.34 180.395,131.12C175.901,126.26 175.782,126.27 173.967,131.51C172.162,136.74 172.024,136.77 168.406,132.85C166.367,130.65 163.716,129.43 162.508,130.15C161.31,130.87 159.375,130.44 158.233,129.2C157.069,127.94 154.188,128.09 151.753,129.55C148.864,131.28 146.446,131.15 144.633,129.19C142.764,127.17 141.092,127.12 139.404,129.05C137.828,130.84 136.097,130.99 134.677,129.45C133.44,128.12 131.517,127.57 130.397,128.24C128.107,129.61 121.305,129.41 109.812,127.64C100.276,126.17 81.065,130.27 83.786,133.2C84.757,134.25 89.763,134.7 94.895,134.21C100.036,133.72 104.915,134.03 105.735,134.91C106.555,135.79 110.445,136.79 114.375,137.12C118.314,137.45 121.323,138.47 121.065,139.37C120.807,140.27 122.65,140.47 125.151,139.8C128.666,138.86 129.567,139.39 129.118,142.15C128.661,144.95 129.925,145.36 135.038,144.05C138.615,143.13 140.348,143.17 138.892,144.12C134.124,147.23 138.904,148.95 143.979,145.95C148.001,143.58 148.567,143.68 147.02,146.48C145.318,149.54 145.628,149.87 149.763,149.45C152.328,149.19 156.429,147.83 158.867,146.43C162.99,144.07 163.135,144.17 160.875,147.76C157.836,152.59 162.002,153.89 168.412,150.11C172.007,147.98 172.772,148.05 171.427,150.38C169.003,154.6 174.599,155.73 180.587,152.25C184.938,149.71 185.184,149.81 183.015,153.26C179.446,158.94 182.443,160.43 189.329,156.41C195.199,152.97 195.321,153.01 193.135,157.72C190.915,162.53 190.957,162.56 196.6,160.54C203.417,158.1 205.836,159.8 201.324,163.87C198.901,166.05 200.592,166.25 207.999,164.65C213.619,163.44 216.274,163.53 214.131,164.86C208.863,168.14 211.482,170.02 219.161,168.46C224.291,167.43 224.844,167.65 221.865,169.55C215.84,173.41 220.329,175.29 229.992,172.94C238.66,170.84 238.782,170.89 234.047,174.57L229.158,178.36L238.078,176.98C243.895,176.08 245.733,176.39 243.35,177.88C236.576,182.1 239.738,184.7 249.022,182.55C255.012,181.16 256.88,181.3 254.345,182.94C249.237,186.24 254.346,188.79 260.495,186.01C263.582,184.61 265.818,180.41 266.902,173.97L266.902,173.97ZM272.842,139.48C273.431,130.71 270.988,127.58 267.059,132.05C264.733,134.69 264.349,134.64 265.135,131.81C266.515,126.82 262.744,123.38 259.705,126.85C256.949,129.99 253.926,128.23 256.01,124.69C258.122,121.13 254.678,118.99 251.911,122.14C249.951,124.38 248.961,124.01 247.323,120.45C245.983,117.54 244.3,116.46 242.647,117.44C241.072,118.38 239.53,117.49 238.673,115.13C237.661,112.35 236.273,111.87 233.693,113.41C231.113,114.96 229.725,114.48 228.713,111.7C227.702,108.94 226.313,108.44 223.801,109.95C221.008,111.61 220.201,111.17 219.854,107.77C219.234,101.6 217.989,100.99 213.873,104.84C210.933,107.57 209.538,107.5 206.71,104.45C204.276,101.81 202.496,101.46 200.883,103.29C199.486,104.89 196.993,105 194.569,103.57C192.373,102.26 189.933,102.27 189.16,103.59C188.376,104.9 186.758,104.92 185.562,103.62C184.367,102.33 182.438,101.84 181.269,102.54C180.099,103.23 171.937,102.5 163.124,100.91C147.57,98.1 130.828,98.24 130,101.18C129.776,101.97 134.98,103.43 141.568,104.42C154.572,106.36 176.997,115.37 176.158,118.32C175.877,119.32 178.104,119.27 181.101,118.19C184.206,117.08 186.873,117.37 187.29,118.85C187.71,120.39 191.12,120.58 195.608,119.33C199.788,118.15 202.018,117.98 200.575,118.95C196.657,121.56 200.173,124.06 204.3,121.6C207.112,119.92 207.72,120.24 207.25,123.15C206.772,126.1 207.794,126.47 212.41,125.02C216.995,123.57 217.822,123.87 216.484,126.48C215.514,128.36 215.989,129.47 217.607,129.1C219.147,128.75 222.507,128.24 225.072,127.98C229.167,127.56 229.498,127.91 227.82,130.87C226.251,133.63 227.067,133.91 232.372,132.44C238.365,130.78 238.602,130.91 235.678,134.27C232.745,137.64 233.045,137.81 239.941,136.72C244.024,136.08 246.158,136.32 244.671,137.24C240.235,140.04 244.438,142.16 251.06,140.47C256.135,139.18 256.544,139.34 253.323,141.39C247.817,144.88 253.32,146.99 260.718,144.22L266.845,141.93L262.579,145.95C260.18,148.2 259.593,150.3 261.237,150.72C266.688,152.11 272.367,146.61 272.842,139.48L272.842,139.48ZM363.196,88.08C371.415,82.4 376.363,75.33 369.713,78.77C357.686,84.99 352.081,87.13 350.247,86.21C349.093,85.62 347.087,86.37 345.773,87.86C344.47,89.35 342.813,89.92 342.088,89.14C341.352,88.35 337.914,89.59 334.438,91.9C330.973,94.21 327.547,95.47 326.842,94.7C326.127,93.93 324.591,94.34 323.414,95.6C322.248,96.86 317.112,99.16 312.002,100.71C300.319,104.25 295.919,108.04 297.719,113C299.467,117.78 301.316,117.94 308.724,113.95C311.924,112.23 314.882,111.18 315.299,111.63C315.704,112.07 317.872,111.51 320.096,110.38C340.336,100.1 351.46,94.67 353.027,94.28C354.062,94.02 358.63,91.23 363.196,88.08ZM279.371,109.27C279.001,105.68 278.004,104.68 275.134,105.03C273.069,105.28 271.354,104.33 271.33,102.91C271.298,101.49 270.266,100.94 269.029,101.68C267.792,102.42 266.408,101.66 265.941,100C265.484,98.34 263.917,97.7 262.457,98.57C260.989,99.45 259.472,98.99 259.079,97.56C258.686,96.13 255.799,94.49 252.666,93.91C249.542,93.33 246.163,91.97 245.16,90.89C243.43,89.02 238.791,88.17 215.87,85.56C205.249,84.35 201.175,87.03 209.6,89.69C212.3,90.54 216.596,92.89 219.144,94.91C221.702,96.93 225.764,98.33 228.187,98.04C230.599,97.74 232.331,97.95 232.033,98.5C231.563,99.35 239.413,104.16 243.243,105.36C243.946,105.58 246.661,106.86 249.269,108.21C251.877,109.55 254.852,110.15 255.886,109.53C256.911,108.92 258.121,109.78 258.578,111.44C259.044,113.1 260.612,113.74 262.071,112.87C263.53,111.99 265.106,112.62 265.553,114.27C266.034,116.01 268.713,116.86 271.951,116.31C279.526,115.02 279.915,114.65 279.371,109.27L279.371,109.27Z" style="fill:rgb(132,189,76);fill-rule:nonzero;"/>
    </g>
</svg>
